<svg id="svg" version="1.1" width="400" height="400" viewBox="0 0 400 400" xmlns="http://www.w3.org/2000/svg" xmlns:xlink="http://www.w3.org/1999/xlink" ><g id="svgg"><path id="path0" d="M42.800 184.400 L 42.800 186.800 46.000 186.800 L 49.200 186.800 49.200 184.400 L 49.200 182.000 46.000 182.000 L 42.800 182.000 42.800 184.400 M76.000 184.400 L 76.000 186.800 78.200 186.800 L 80.400 186.800 80.400 184.400 L 80.400 182.000 78.200 182.000 L 76.000 182.000 76.000 184.400 M36.400 212.843 C 36.400 217.824,36.474 218.457,37.033 218.243 C 37.381 218.109,40.261 218.000,43.433 218.000 L 49.200 218.000 49.200 215.600 L 49.200 213.200 46.680 213.200 C 43.529 213.200,43.200 212.871,43.200 209.720 L 43.200 207.200 39.800 207.200 L 36.400 207.200 36.400 212.843 " stroke="none" fill="#000000" fill-rule="evenodd"></path><path id="path1" d="M45.900 181.898 L 49.200 182.032 49.200 184.416 L 49.200 186.800 45.900 186.880 L 42.600 186.961 45.738 187.098 C 49.530 187.264,50.000 186.969,50.000 184.431 C 50.000 181.841,49.612 181.586,45.820 181.681 L 42.600 181.763 45.900 181.898 M75.365 182.148 C 75.249 182.449,75.210 183.664,75.277 184.848 L 75.400 187.000 78.100 187.118 L 80.800 187.237 80.800 184.418 L 80.800 181.600 78.187 181.600 C 76.345 181.600,75.513 181.761,75.365 182.148 M80.400 184.400 L 80.400 186.800 78.200 186.800 L 76.000 186.800 76.000 184.400 L 76.000 182.000 78.200 182.000 L 80.400 182.000 80.400 184.400 M36.399 206.900 C 36.400 207.065,37.930 207.200,39.800 207.200 L 43.200 207.200 43.200 209.720 C 43.200 212.871,43.529 213.200,46.680 213.200 L 49.200 213.200 49.200 215.600 L 49.200 218.000 43.300 218.006 C 37.866 218.012,35.792 218.326,36.502 219.035 C 36.655 219.189,39.620 219.154,43.090 218.957 L 49.400 218.600 49.400 215.600 L 49.400 212.600 46.800 212.400 L 44.200 212.200 44.000 209.600 L 43.800 207.000 40.099 206.800 C 38.064 206.690,36.399 206.735,36.399 206.900 " stroke="none" fill="#20130d" fill-rule="evenodd"></path><path id="path2" d="M38.311 206.693 C 39.251 206.778,40.691 206.777,41.511 206.691 C 42.330 206.605,41.560 206.536,39.800 206.537 C 38.040 206.539,37.370 206.609,38.311 206.693 M49.724 215.800 C 49.726 217.120,49.801 217.612,49.890 216.893 C 49.979 216.174,49.977 215.094,49.886 214.493 C 49.795 213.892,49.722 214.480,49.724 215.800 " stroke="none" fill="#621414" fill-rule="evenodd"></path><path id="path3" d="M75.429 181.429 C 74.661 182.197,74.549 186.789,75.280 187.520 C 75.551 187.791,76.850 188.000,78.266 188.000 C 81.222 188.000,81.600 187.592,81.600 184.400 C 81.600 181.246,81.206 180.800,78.414 180.800 C 76.805 180.800,75.858 180.999,75.429 181.429 M45.400 181.480 C 50.054 181.685,50.000 181.651,50.000 184.365 C 50.000 187.154,49.931 187.200,45.767 187.200 C 44.135 187.200,42.800 187.335,42.799 187.500 C 42.799 187.888,49.643 187.502,50.300 187.076 C 50.608 186.877,50.800 185.836,50.800 184.366 C 50.800 181.451,50.316 181.160,45.674 181.278 L 42.600 181.357 45.400 181.480 M80.800 184.418 L 80.800 187.237 78.100 187.118 L 75.400 187.000 75.277 184.848 C 75.098 181.696,75.184 181.600,78.187 181.600 L 80.800 181.600 80.800 184.418 M325.595 212.084 C 325.588 233.215,325.837 231.600,322.586 231.600 C 318.924 231.600,318.800 231.691,318.800 234.394 C 318.800 237.504,318.692 237.558,312.173 237.688 L 306.600 237.800 306.388 253.200 C 306.272 261.670,306.137 268.645,306.088 268.700 C 306.040 268.755,304.866 268.800,303.480 268.800 C 299.876 268.800,300.000 268.458,300.000 278.437 C 300.000 288.242,300.237 287.600,296.616 287.600 C 293.702 287.600,293.659 287.702,293.520 294.935 L 293.400 301.238 296.663 301.165 C 301.411 301.060,301.124 301.534,301.169 293.700 L 301.200 288.400 304.200 288.400 L 307.200 288.400 307.200 279.000 L 307.200 269.600 309.383 269.600 L 311.566 269.600 311.683 272.700 L 311.800 275.800 315.600 275.800 L 319.400 275.800 319.505 260.317 L 319.609 244.833 322.705 244.717 L 325.800 244.600 325.910 238.500 L 326.021 232.400 328.582 232.400 C 332.682 232.400,332.390 233.937,332.288 212.883 L 332.200 194.600 328.900 194.484 L 325.600 194.368 325.595 212.084 M36.400 206.100 C 36.400 206.265,37.762 206.400,39.426 206.400 C 43.533 206.400,44.000 206.700,44.000 209.334 C 44.000 211.967,44.433 212.400,47.066 212.400 C 49.566 212.400,50.000 212.921,50.000 215.925 C 50.000 218.613,49.860 218.674,42.800 219.061 L 36.600 219.400 36.546 222.200 C 36.475 225.865,36.617 226.000,40.549 226.001 L 43.800 226.002 43.670 222.801 L 43.539 219.600 46.490 219.600 C 48.251 219.600,49.633 219.407,49.920 219.120 C 50.627 218.413,50.545 213.145,49.813 212.176 C 49.446 211.692,49.221 210.461,49.213 208.900 L 49.200 206.400 47.500 206.364 C 46.565 206.345,43.685 206.210,41.100 206.064 C 38.514 205.919,36.399 205.935,36.400 206.100 M69.206 219.354 C 68.983 219.577,68.800 220.875,68.800 222.237 C 68.800 225.040,68.635 225.200,65.741 225.200 C 62.853 225.200,62.400 224.764,62.400 221.986 L 62.400 219.600 59.430 219.600 L 56.461 219.600 56.330 222.801 L 56.200 226.002 58.900 226.001 L 61.600 226.000 61.600 228.786 C 61.600 232.174,61.987 232.495,65.924 232.365 C 69.707 232.241,69.600 232.340,69.600 228.957 L 69.600 226.000 71.800 226.000 L 74.000 226.000 74.031 228.100 C 74.091 232.243,74.231 232.388,78.200 232.388 C 82.169 232.388,82.309 232.243,82.369 228.100 L 82.400 226.000 84.400 226.000 L 86.400 226.000 86.400 231.400 C 86.400 234.370,86.415 236.935,86.434 237.100 C 86.549 238.113,87.513 238.400,90.806 238.400 C 94.839 238.400,94.800 238.435,94.800 234.767 L 94.800 232.400 96.900 232.369 C 101.113 232.308,101.108 232.313,101.169 228.100 L 101.200 226.000 103.200 226.000 L 105.200 226.000 105.200 231.400 C 105.200 234.370,105.215 236.935,105.234 237.100 C 105.349 238.113,106.313 238.400,109.606 238.400 C 113.639 238.400,113.600 238.435,113.600 234.767 L 113.600 232.400 115.800 232.400 L 118.000 232.400 118.000 247.757 C 118.000 265.159,117.643 263.600,121.633 263.600 L 124.000 263.600 124.000 272.000 L 124.000 280.400 121.000 280.400 L 118.000 280.400 118.000 283.400 L 118.000 286.400 115.574 286.400 C 111.917 286.400,111.600 286.688,111.600 290.014 L 111.600 292.800 108.814 292.800 C 105.411 292.800,105.122 293.161,105.241 297.246 C 105.360 301.331,104.845 301.141,115.902 301.186 L 125.400 301.225 125.400 297.712 L 125.400 294.200 127.786 294.077 C 130.870 293.919,131.200 293.605,131.200 290.831 C 131.200 287.639,131.278 287.600,137.666 287.600 C 144.664 287.600,144.000 289.267,144.000 271.706 C 144.000 255.535,144.181 256.400,140.800 256.400 C 138.004 256.400,137.600 255.996,137.600 253.200 C 137.600 250.404,137.196 250.000,134.400 250.000 C 131.552 250.000,131.200 249.617,131.200 246.520 L 131.200 244.000 133.626 244.000 C 137.162 244.000,137.600 243.655,137.600 240.866 C 137.600 238.001,137.207 237.600,134.400 237.600 C 131.549 237.600,131.200 237.981,131.200 241.098 L 131.200 243.635 128.300 243.518 L 125.400 243.400 125.288 237.827 C 125.156 231.237,125.136 231.200,121.759 231.200 C 118.891 231.200,118.904 231.217,118.705 227.400 L 118.600 225.400 116.214 225.277 C 113.124 225.119,112.800 224.808,112.800 222.000 C 112.800 218.737,112.647 218.664,106.510 218.990 C 99.596 219.357,100.000 219.159,100.000 222.184 C 100.000 225.290,100.184 225.200,93.800 225.200 C 87.415 225.200,87.600 225.290,87.600 222.181 C 87.600 220.593,87.413 219.526,87.100 219.324 C 86.350 218.838,69.694 218.866,69.206 219.354 M181.661 231.727 C 181.404 232.036,181.177 234.552,181.112 237.827 L 181.000 243.400 178.614 243.523 C 175.041 243.706,175.054 243.680,175.356 249.992 C 175.669 256.536,175.668 256.538,172.115 256.800 L 169.400 257.000 169.279 259.600 C 169.128 262.840,169.006 262.955,165.481 263.200 L 162.600 263.400 162.400 272.200 L 162.200 281.000 159.814 281.123 C 156.730 281.281,156.400 281.595,156.400 284.369 C 156.400 287.203,156.003 287.600,153.169 287.600 C 150.080 287.600,150.060 287.646,149.920 294.940 L 149.800 301.247 153.000 301.172 C 157.364 301.070,157.200 301.336,157.200 294.361 L 157.200 288.421 163.300 288.310 L 169.400 288.200 169.507 278.900 L 169.615 269.600 171.807 269.600 L 174.000 269.600 174.050 272.000 C 174.134 276.046,174.087 276.000,178.175 276.000 C 181.191 276.000,183.092 275.358,182.500 274.539 C 182.445 274.462,182.400 270.530,182.400 265.800 L 182.400 257.200 185.400 257.200 L 188.400 257.200 188.400 254.200 L 188.400 251.200 190.600 251.200 L 192.800 251.200 192.800 253.567 C 192.800 257.432,192.325 257.200,200.243 257.200 L 207.200 257.200 207.200 254.200 L 207.200 251.200 209.400 251.200 L 211.600 251.200 211.606 253.700 C 211.615 257.222,211.653 257.253,215.834 257.117 L 219.400 257.000 219.518 254.100 L 219.635 251.200 221.818 251.200 L 224.000 251.200 224.000 253.400 C 224.000 256.179,223.989 256.105,224.483 256.700 C 224.792 257.073,227.173 257.200,233.832 257.200 L 242.766 257.200 242.883 260.300 L 243.000 263.400 246.100 263.517 L 249.200 263.634 249.200 269.574 C 249.200 276.345,249.005 276.000,252.833 276.000 L 255.200 276.000 255.200 278.200 L 255.200 280.400 252.200 280.400 L 249.200 280.400 249.200 283.400 L 249.200 286.400 246.774 286.400 C 243.117 286.400,242.800 286.688,242.800 290.014 L 242.800 292.800 240.014 292.800 C 236.611 292.800,236.322 293.161,236.441 297.246 C 236.563 301.415,235.644 301.153,250.308 301.189 L 263.000 301.220 263.000 297.710 L 263.000 294.200 265.386 294.077 C 268.826 293.901,268.800 293.951,268.800 287.631 C 268.800 281.282,268.841 281.200,272.031 281.200 C 274.890 281.200,275.278 280.764,275.121 277.734 L 275.000 275.400 269.340 275.289 C 265.207 275.208,263.560 275.034,263.235 274.642 C 262.922 274.265,262.821 269.684,262.895 259.153 L 263.000 244.200 265.390 244.077 C 268.217 243.932,268.386 243.735,268.394 240.580 C 268.401 237.592,268.774 237.200,271.600 237.200 C 274.326 237.200,274.800 236.780,274.800 234.369 C 274.800 231.816,274.531 231.693,268.600 231.537 L 263.400 231.400 263.279 233.992 C 263.117 237.443,262.634 237.933,259.254 238.083 L 256.600 238.200 256.488 243.574 C 256.357 249.860,256.286 250.000,253.231 250.000 C 250.397 250.000,250.000 249.603,250.000 246.769 C 250.000 243.995,249.670 243.681,246.586 243.523 L 244.200 243.400 244.077 241.014 C 243.901 237.572,243.954 237.600,237.600 237.600 C 231.246 237.600,231.299 237.572,231.123 241.014 L 231.000 243.400 225.455 243.512 C 218.924 243.643,218.879 243.622,218.718 240.266 L 218.600 237.800 216.065 237.680 C 212.839 237.527,212.466 237.852,212.318 240.934 L 212.200 243.400 209.400 243.400 L 206.600 243.400 206.477 241.014 C 206.301 237.572,206.354 237.600,200.000 237.600 C 193.646 237.600,193.699 237.572,193.523 241.014 L 193.400 243.400 190.600 243.400 L 187.800 243.400 187.688 237.827 C 187.558 231.310,187.503 231.200,184.400 231.200 C 182.984 231.200,181.930 231.403,181.661 231.727 " stroke="none" fill="#663931" fill-rule="evenodd"></path><path id="path4" d="" stroke="none" fill="#555500" fill-rule="evenodd"></path><path id="path5" d="" stroke="none" fill="#993300" fill-rule="evenodd"></path><path id="path6" d="M56.400 159.351 C 56.400 161.960,56.036 162.315,53.188 162.476 L 51.000 162.600 50.800 165.533 C 50.545 169.275,50.155 169.600,45.924 169.600 L 42.800 169.600 42.800 172.000 L 42.800 174.400 49.200 174.400 L 55.600 174.400 55.606 171.900 C 55.615 168.396,55.783 168.234,59.583 168.061 L 62.800 167.915 62.800 162.558 L 62.800 157.200 59.600 157.200 L 56.400 157.200 56.400 159.351 M94.400 159.720 C 94.400 162.849,94.061 163.198,91.020 163.206 C 87.775 163.214,87.528 163.423,87.677 166.038 L 87.800 168.200 90.392 168.321 C 93.744 168.479,94.400 169.045,94.400 171.786 C 94.400 174.789,93.822 175.359,90.533 175.600 L 87.800 175.800 87.764 184.504 C 87.724 194.356,87.569 193.901,91.014 194.077 L 93.400 194.200 93.600 199.800 C 93.843 206.598,93.734 206.400,97.224 206.400 L 100.000 206.400 100.000 209.186 C 100.000 212.436,100.352 212.800,103.494 212.800 C 105.960 212.800,106.400 213.263,106.400 215.862 C 106.400 218.381,106.478 218.354,99.000 218.504 L 94.200 218.600 94.077 216.206 C 93.886 212.481,93.734 212.400,86.920 212.400 L 81.165 212.400 81.282 209.500 L 81.400 206.600 83.985 206.479 C 87.278 206.324,87.600 206.035,87.600 203.231 C 87.600 200.397,87.203 200.000,84.369 200.000 C 81.565 200.000,81.276 200.322,81.121 203.615 L 81.000 206.200 78.200 206.400 L 75.400 206.600 75.282 209.500 L 75.165 212.400 72.462 212.400 C 69.160 212.400,68.800 212.718,68.800 215.631 C 68.800 218.723,68.968 218.669,59.400 218.632 L 51.000 218.600 50.474 212.200 C 50.184 208.680,49.824 204.630,49.674 203.200 L 49.400 200.600 47.066 200.479 C 44.159 200.328,43.671 200.721,43.520 203.333 L 43.400 205.400 40.000 205.625 C 36.601 205.851,36.601 205.851,39.239 205.925 C 40.690 205.966,43.525 206.117,45.539 206.260 L 49.200 206.520 49.213 208.960 C 49.221 210.468,49.450 211.696,49.813 212.176 C 50.545 213.145,50.627 218.413,49.920 219.120 C 49.634 219.406,48.254 219.600,46.503 219.600 L 43.566 219.600 43.683 222.700 L 43.800 225.800 50.000 225.800 L 56.200 225.800 56.317 222.700 L 56.434 219.600 59.417 219.600 L 62.400 219.600 62.400 221.986 C 62.400 224.764,62.853 225.200,65.741 225.200 C 68.644 225.200,68.800 225.046,68.800 222.181 C 68.800 218.875,68.416 219.006,78.200 218.963 C 87.861 218.921,87.600 218.831,87.600 222.206 C 87.600 225.286,87.421 225.200,93.800 225.200 C 100.184 225.200,100.000 225.290,100.000 222.184 C 100.000 219.159,99.596 219.357,106.510 218.990 C 112.647 218.664,112.800 218.737,112.800 222.000 C 112.800 224.808,113.124 225.119,116.214 225.277 L 118.600 225.400 118.705 227.400 C 118.904 231.217,118.891 231.200,121.759 231.200 C 125.136 231.200,125.156 231.237,125.288 237.827 L 125.400 243.400 128.300 243.518 L 131.200 243.635 131.200 241.098 C 131.200 237.981,131.549 237.600,134.400 237.600 C 137.207 237.600,137.600 238.001,137.600 240.866 C 137.600 243.655,137.162 244.000,133.626 244.000 L 131.200 244.000 131.200 246.520 C 131.200 249.617,131.552 250.000,134.400 250.000 C 137.196 250.000,137.600 250.404,137.600 253.200 C 137.600 255.996,138.004 256.400,140.800 256.400 C 144.181 256.400,144.000 255.535,144.000 271.706 C 144.000 289.267,144.664 287.600,137.666 287.600 C 131.278 287.600,131.200 287.639,131.200 290.831 C 131.200 293.605,130.870 293.919,127.786 294.077 L 125.400 294.200 125.400 297.600 L 125.400 301.000 137.600 301.000 L 149.800 301.000 149.911 294.828 C 150.039 287.662,150.067 287.600,153.169 287.600 C 156.003 287.600,156.400 287.203,156.400 284.369 C 156.400 281.595,156.730 281.281,159.814 281.123 L 162.200 281.000 162.400 272.200 L 162.600 263.400 165.481 263.200 C 169.006 262.955,169.128 262.840,169.279 259.600 L 169.400 257.000 172.115 256.800 C 175.668 256.538,175.669 256.536,175.356 249.992 C 175.054 243.680,175.041 243.706,178.614 243.523 L 181.000 243.400 181.112 237.827 C 181.242 231.310,181.297 231.200,184.400 231.200 C 187.503 231.200,187.558 231.310,187.688 237.827 L 187.800 243.400 190.600 243.400 L 193.400 243.400 193.523 241.014 C 193.699 237.572,193.646 237.600,200.000 237.600 C 206.354 237.600,206.301 237.572,206.477 241.014 L 206.600 243.400 209.400 243.400 L 212.200 243.400 212.318 240.934 C 212.466 237.852,212.839 237.527,216.065 237.680 L 218.600 237.800 218.718 240.266 C 218.879 243.622,218.924 243.643,225.455 243.512 L 231.000 243.400 231.123 241.014 C 231.299 237.572,231.246 237.600,237.600 237.600 C 243.954 237.600,243.901 237.572,244.077 241.014 L 244.200 243.400 246.586 243.523 C 249.670 243.681,250.000 243.995,250.000 246.769 C 250.000 249.603,250.397 250.000,253.231 250.000 C 256.286 250.000,256.357 249.860,256.488 243.574 L 256.600 238.200 259.192 238.079 C 262.643 237.917,263.133 237.434,263.283 234.054 L 263.400 231.400 268.600 231.537 C 274.531 231.693,274.800 231.816,274.800 234.369 C 274.800 236.780,274.326 237.200,271.600 237.200 C 268.774 237.200,268.401 237.592,268.394 240.580 C 268.386 243.735,268.217 243.932,265.390 244.077 L 263.000 244.200 262.895 259.153 C 262.821 269.684,262.922 274.265,263.235 274.642 C 263.560 275.034,265.207 275.208,269.340 275.289 L 275.000 275.400 275.121 277.734 C 275.278 280.764,274.890 281.200,272.031 281.200 C 268.841 281.200,268.800 281.282,268.800 287.631 C 268.800 293.951,268.826 293.901,265.386 294.077 L 263.000 294.200 263.000 297.600 L 263.000 301.000 278.200 301.000 L 293.400 301.000 293.511 294.828 C 293.638 287.717,293.689 287.600,296.616 287.600 C 300.237 287.600,300.000 288.242,300.000 278.437 C 300.000 268.458,299.876 268.800,303.480 268.800 C 304.866 268.800,306.040 268.755,306.088 268.700 C 306.137 268.645,306.272 261.670,306.388 253.200 L 306.600 237.800 312.173 237.688 C 318.692 237.558,318.800 237.504,318.800 234.394 C 318.800 231.691,318.924 231.600,322.586 231.600 C 325.837 231.600,325.588 233.212,325.595 212.109 L 325.600 194.417 335.100 194.509 L 344.600 194.600 344.717 191.517 L 344.833 188.433 347.917 188.317 L 351.000 188.200 351.110 181.738 C 351.240 174.072,351.207 174.000,347.620 174.000 C 346.343 174.000,344.651 174.270,343.862 174.600 C 339.563 176.396,337.600 175.305,337.600 171.120 L 337.600 168.000 334.600 168.000 L 331.600 168.000 331.600 171.386 C 331.600 175.389,331.400 175.600,327.608 175.600 L 325.163 175.600 325.282 178.300 L 325.400 181.000 327.866 181.118 C 331.211 181.279,331.244 181.345,331.112 187.655 L 331.000 193.000 328.200 193.120 C 324.326 193.287,324.625 191.776,324.400 212.320 L 324.200 230.600 322.432 230.726 C 318.725 230.991,318.800 231.109,318.800 225.041 C 318.800 218.864,318.819 218.899,315.386 218.723 L 313.000 218.600 312.877 216.206 C 312.717 213.073,312.105 212.400,309.418 212.400 C 306.348 212.400,306.400 212.237,306.400 221.800 C 306.400 232.038,306.977 231.200,299.934 231.200 C 293.705 231.200,293.600 231.253,293.600 234.400 C 293.600 237.127,294.068 237.600,296.765 237.600 C 299.696 237.600,300.079 238.020,299.921 241.066 L 299.800 243.400 297.346 243.518 C 294.237 243.667,293.686 244.228,293.523 247.406 L 293.400 249.800 284.400 249.800 L 275.400 249.800 275.286 247.200 C 275.148 244.063,274.689 243.600,271.724 243.600 L 269.600 243.600 269.600 240.800 L 269.600 238.000 272.357 238.000 C 275.543 238.000,275.600 237.937,275.600 234.400 C 275.600 230.901,275.515 230.800,272.590 230.800 C 268.508 230.800,268.800 231.474,268.800 222.037 C 268.800 212.695,268.767 212.800,271.706 212.800 C 275.418 212.800,275.200 213.582,275.200 200.266 C 275.200 187.011,275.350 187.600,271.969 187.600 C 269.195 187.600,268.881 187.930,268.723 191.014 L 268.600 193.400 263.027 193.512 C 255.980 193.653,256.400 193.244,256.400 199.969 C 256.400 206.310,256.355 206.400,253.200 206.400 C 250.030 206.400,250.000 206.462,250.000 213.098 L 250.000 218.835 247.100 218.718 L 244.200 218.600 244.077 216.206 C 243.914 213.028,243.363 212.467,240.254 212.318 L 237.800 212.200 237.677 209.814 C 237.519 206.730,237.205 206.400,234.431 206.400 C 231.607 206.400,231.202 206.002,231.194 203.220 C 231.185 200.122,230.994 199.937,227.964 200.079 L 225.400 200.200 225.279 202.785 C 225.124 206.085,224.838 206.400,222.000 206.400 C 219.192 206.400,218.881 206.724,218.723 209.814 L 218.600 212.200 216.206 212.323 C 213.028 212.486,212.467 213.037,212.318 216.146 L 212.200 218.600 197.247 218.705 C 180.432 218.823,181.200 218.961,181.200 215.831 C 181.200 213.264,181.645 212.800,184.106 212.800 C 187.584 212.800,187.600 212.771,187.600 206.435 C 187.600 199.634,188.026 200.053,180.973 199.912 L 175.400 199.800 175.286 197.200 C 175.148 194.073,174.687 193.600,171.773 193.600 C 169.215 193.600,168.879 193.224,168.723 190.186 L 168.600 187.800 162.600 187.800 L 156.600 187.800 156.477 190.186 C 156.323 193.199,155.976 193.600,153.525 193.600 C 150.464 193.600,150.000 194.012,150.000 196.734 C 150.000 199.599,150.393 200.000,153.200 200.000 C 156.002 200.000,156.400 200.402,156.400 203.231 C 156.400 206.005,156.730 206.319,159.814 206.477 L 162.200 206.600 162.312 212.173 C 162.446 218.861,162.452 218.872,165.963 218.717 L 168.600 218.600 168.712 213.027 C 168.842 206.520,168.901 206.400,171.969 206.400 C 175.281 206.400,175.200 206.163,175.200 215.831 C 175.200 225.547,175.371 225.101,171.585 225.279 L 169.000 225.400 168.894 237.152 C 168.774 250.450,168.647 249.909,171.933 250.081 L 174.200 250.200 174.318 252.900 L 174.437 255.600 172.095 255.600 C 168.899 255.600,168.454 256.024,168.314 259.200 L 168.200 261.800 165.600 261.800 L 163.000 261.800 162.800 256.400 C 162.561 249.941,162.590 250.000,159.656 250.000 C 156.316 250.000,156.400 250.242,156.400 240.600 C 156.400 230.966,156.480 231.200,153.169 231.200 C 150.395 231.200,150.081 230.870,149.923 227.786 L 149.800 225.400 147.414 225.277 C 143.984 225.101,144.000 225.130,144.000 219.013 C 144.000 212.724,143.879 212.512,140.194 212.323 L 137.800 212.200 137.677 209.814 C 137.519 206.730,137.205 206.400,134.431 206.400 C 131.120 206.400,131.200 206.166,131.200 215.800 C 131.200 225.356,131.250 225.200,128.200 225.200 C 125.613 225.200,125.200 224.760,125.200 222.000 C 125.200 219.204,124.796 218.800,122.000 218.800 C 118.723 218.800,118.800 219.028,118.800 209.369 C 118.800 199.707,118.944 200.105,115.386 199.923 L 113.000 199.800 112.800 191.000 C 112.569 180.829,112.689 181.200,109.625 181.200 C 106.705 181.200,106.321 180.778,106.479 177.734 L 106.600 175.400 109.200 175.286 C 112.337 175.148,112.800 174.689,112.800 171.724 L 112.800 169.600 109.829 169.600 C 105.601 169.600,105.600 169.599,105.600 162.771 L 105.600 157.200 100.000 157.200 L 94.400 157.200 94.400 159.720 M75.062 181.131 C 74.257 182.021,74.119 187.159,74.880 187.920 C 75.165 188.205,76.539 188.400,78.266 188.400 C 81.730 188.400,82.000 188.111,82.000 184.400 C 82.000 180.729,81.708 180.400,78.448 180.400 C 76.317 180.400,75.580 180.559,75.062 181.131 M46.200 181.171 C 50.740 181.476,50.800 181.518,50.800 184.400 C 50.800 187.273,50.712 187.338,46.400 187.631 L 43.000 187.862 46.451 187.931 C 49.094 187.984,50.019 187.859,50.400 187.400 C 50.739 186.991,51.647 186.800,53.249 186.800 L 55.600 186.800 55.600 184.400 L 55.600 182.000 53.446 182.000 C 52.261 182.000,50.776 181.731,50.146 181.402 C 49.370 180.998,47.967 180.825,45.800 180.867 L 42.600 180.929 46.200 181.171 M81.186 181.574 C 81.414 181.999,81.600 183.271,81.600 184.400 C 81.600 187.592,81.222 188.000,78.266 188.000 C 76.850 188.000,75.551 187.791,75.280 187.520 C 74.549 186.789,74.661 182.197,75.429 181.429 C 76.408 180.449,80.641 180.556,81.186 181.574 M105.920 200.480 C 106.606 201.166,106.541 205.385,105.835 205.971 C 105.495 206.253,104.259 206.392,102.735 206.320 L 100.200 206.200 100.080 203.665 C 100.008 202.141,100.147 200.905,100.429 200.565 C 101.015 199.859,105.234 199.794,105.920 200.480 M81.200 215.357 C 81.200 218.239,81.042 218.400,78.200 218.400 C 75.358 218.400,75.200 218.239,75.200 215.357 L 75.200 212.800 78.200 212.800 L 81.200 212.800 81.200 215.357 M255.920 219.280 C 256.184 219.544,256.400 220.768,256.400 222.000 C 256.400 223.232,256.184 224.456,255.920 224.720 C 255.656 224.984,254.432 225.200,253.200 225.200 C 251.968 225.200,250.744 224.984,250.480 224.720 C 249.977 224.217,249.801 219.533,250.267 219.067 C 250.733 218.601,255.417 218.777,255.920 219.280 M261.918 234.100 L 262.037 236.800 259.218 236.800 L 256.400 236.800 256.400 234.480 C 256.400 231.540,256.806 231.135,259.597 231.283 L 261.800 231.400 261.918 234.100 " stroke="none" fill="#8f563b" fill-rule="evenodd"></path><path id="path7" d="M136.866 143.149 C 136.572 143.336,136.347 143.604,136.366 143.745 C 136.385 143.885,136.400 145.170,136.400 146.600 L 136.400 149.200 121.600 149.200 L 106.800 149.200 106.800 152.379 L 106.800 155.557 115.815 155.679 C 126.058 155.817,125.584 155.645,125.594 159.220 C 125.603 162.352,125.505 162.400,119.182 162.400 C 112.770 162.400,112.521 162.531,112.324 166.005 L 112.200 168.200 109.600 168.200 L 107.000 168.200 106.800 162.200 L 106.600 156.200 100.200 156.200 L 93.800 156.200 93.679 158.785 C 93.498 162.638,94.334 162.400,80.994 162.400 C 67.579 162.400,68.800 162.827,68.800 158.134 L 68.800 155.134 66.100 155.338 C 64.615 155.450,61.420 155.723,59.000 155.945 C 56.580 156.168,52.341 156.361,49.580 156.375 C 43.818 156.404,43.600 156.510,43.600 159.306 C 43.600 162.354,44.010 162.800,46.806 162.800 C 49.514 162.800,49.762 163.131,49.526 166.432 L 49.400 168.200 46.734 168.317 C 42.632 168.498,42.065 169.600,46.075 169.600 C 50.138 169.600,50.547 169.248,50.800 165.533 L 51.000 162.600 53.188 162.476 C 56.036 162.315,56.400 161.960,56.400 159.351 L 56.400 157.200 59.600 157.200 L 62.800 157.200 62.800 162.558 L 62.800 167.915 59.583 168.061 C 55.783 168.234,55.615 168.396,55.606 171.900 L 55.600 174.400 49.200 174.400 C 45.200 174.400,42.800 174.550,42.800 174.800 C 42.800 175.438,55.795 175.329,56.328 174.686 C 56.563 174.404,56.810 173.099,56.877 171.786 L 57.000 169.400 59.600 169.400 L 62.200 169.400 62.402 171.800 C 62.698 175.325,62.456 175.200,68.981 175.200 C 75.411 175.200,75.200 175.096,75.200 178.261 C 75.200 180.613,74.646 181.083,71.566 181.342 C 70.155 181.461,67.695 181.678,66.100 181.824 L 63.200 182.090 63.200 187.617 C 63.200 194.759,63.553 194.400,56.545 194.400 C 49.758 194.400,49.600 194.323,49.600 191.033 C 49.600 188.134,49.751 188.015,53.438 188.005 C 56.133 187.998,56.800 187.269,56.800 184.330 C 56.800 180.989,56.602 180.896,49.000 180.663 C 45.167 180.546,44.078 180.576,46.285 180.739 C 48.322 180.889,50.191 181.231,50.465 181.505 C 50.745 181.785,51.970 182.000,53.280 182.000 L 55.600 182.000 55.600 184.400 L 55.600 186.800 53.249 186.800 C 51.647 186.800,50.739 186.991,50.400 187.400 C 50.026 187.851,49.020 188.000,46.351 188.000 L 42.800 188.000 42.800 193.600 L 42.800 199.200 39.990 199.200 C 36.715 199.200,36.400 199.572,36.400 203.442 L 36.400 205.631 39.900 205.516 L 43.400 205.400 43.520 203.333 C 43.671 200.721,44.159 200.328,47.066 200.479 L 49.400 200.600 49.674 203.200 C 49.824 204.630,50.184 208.680,50.474 212.200 L 51.000 218.600 59.400 218.632 C 68.968 218.669,68.800 218.723,68.800 215.631 C 68.800 212.718,69.160 212.400,72.462 212.400 L 75.165 212.400 75.282 209.500 L 75.400 206.600 78.200 206.400 L 81.000 206.200 81.121 203.615 C 81.188 202.194,81.435 200.799,81.670 200.515 C 82.217 199.856,86.469 199.829,87.120 200.480 C 87.771 201.131,87.744 205.383,87.085 205.930 C 86.801 206.165,85.406 206.412,83.985 206.479 L 81.400 206.600 81.282 209.500 L 81.165 212.400 86.920 212.400 C 93.734 212.400,93.886 212.481,94.077 216.206 L 94.200 218.600 99.000 218.504 C 106.478 218.354,106.400 218.381,106.400 215.862 C 106.400 213.263,105.960 212.800,103.494 212.800 C 100.352 212.800,100.000 212.436,100.000 209.186 L 100.000 206.400 97.224 206.400 C 93.734 206.400,93.843 206.598,93.600 199.800 L 93.400 194.200 91.014 194.077 C 87.569 193.901,87.724 194.356,87.764 184.504 L 87.800 175.800 90.533 175.600 C 93.822 175.359,94.400 174.789,94.400 171.786 C 94.400 169.045,93.744 168.479,90.392 168.321 L 87.800 168.200 87.677 166.038 C 87.528 163.423,87.775 163.214,91.020 163.206 C 94.061 163.198,94.400 162.849,94.400 159.720 L 94.400 157.200 100.000 157.200 L 105.600 157.200 105.600 162.771 C 105.600 169.599,105.601 169.600,109.829 169.600 L 112.800 169.600 112.800 171.724 C 112.800 174.689,112.337 175.148,109.200 175.286 L 106.600 175.400 106.479 177.734 C 106.321 180.778,106.705 181.200,109.625 181.200 C 112.689 181.200,112.569 180.829,112.800 191.000 L 113.000 199.800 115.386 199.923 C 118.944 200.105,118.800 199.707,118.800 209.369 C 118.800 219.028,118.723 218.800,122.000 218.800 C 124.796 218.800,125.200 219.204,125.200 222.000 C 125.200 224.760,125.613 225.200,128.200 225.200 C 131.250 225.200,131.200 225.356,131.200 215.800 C 131.200 206.166,131.120 206.400,134.431 206.400 C 137.205 206.400,137.519 206.730,137.677 209.814 L 137.800 212.200 140.194 212.323 C 143.879 212.512,144.000 212.724,144.000 219.013 C 144.000 225.130,143.984 225.101,147.414 225.277 L 149.800 225.400 149.923 227.786 C 150.081 230.870,150.395 231.200,153.169 231.200 C 156.480 231.200,156.400 230.966,156.400 240.600 C 156.400 250.242,156.316 250.000,159.656 250.000 C 162.590 250.000,162.561 249.941,162.800 256.400 L 163.000 261.800 165.600 261.800 L 168.200 261.800 168.314 259.200 C 168.454 256.024,168.899 255.600,172.095 255.600 L 174.437 255.600 174.318 252.900 L 174.200 250.200 171.933 250.081 C 168.647 249.909,168.774 250.450,168.894 237.152 L 169.000 225.400 171.585 225.279 C 175.371 225.101,175.200 225.547,175.200 215.831 C 175.200 206.163,175.281 206.400,171.969 206.400 C 168.901 206.400,168.842 206.520,168.712 213.027 L 168.600 218.600 165.963 218.717 C 162.452 218.872,162.446 218.861,162.312 212.173 L 162.200 206.600 159.814 206.477 C 156.730 206.319,156.400 206.005,156.400 203.231 C 156.400 200.402,156.002 200.000,153.200 200.000 C 150.393 200.000,150.000 199.599,150.000 196.734 C 150.000 194.012,150.464 193.600,153.525 193.600 C 155.976 193.600,156.323 193.199,156.477 190.186 L 156.600 187.800 162.600 187.800 L 168.600 187.800 168.723 190.186 C 168.879 193.224,169.215 193.600,171.773 193.600 C 174.687 193.600,175.148 194.073,175.286 197.200 L 175.400 199.800 180.973 199.912 C 188.026 200.053,187.600 199.634,187.600 206.435 C 187.600 212.771,187.584 212.800,184.106 212.800 C 181.645 212.800,181.200 213.264,181.200 215.831 C 181.200 218.961,180.432 218.823,197.247 218.705 L 212.200 218.600 212.318 216.146 C 212.467 213.037,213.028 212.486,216.206 212.323 L 218.600 212.200 218.723 209.814 C 218.881 206.724,219.192 206.400,222.000 206.400 C 224.838 206.400,225.124 206.085,225.279 202.785 L 225.400 200.200 227.964 200.079 C 230.994 199.937,231.185 200.122,231.194 203.220 C 231.202 206.002,231.607 206.400,234.431 206.400 C 237.205 206.400,237.519 206.730,237.677 209.814 L 237.800 212.200 240.194 212.323 C 243.372 212.486,243.933 213.037,244.082 216.146 L 244.200 218.600 247.100 218.718 L 250.000 218.835 250.000 213.098 C 250.000 206.462,250.030 206.400,253.200 206.400 C 256.355 206.400,256.400 206.310,256.400 199.969 C 256.400 193.244,255.980 193.653,263.027 193.512 L 268.600 193.400 268.723 191.014 C 268.881 187.930,269.195 187.600,271.969 187.600 C 275.350 187.600,275.200 187.011,275.200 200.266 C 275.200 213.582,275.418 212.800,271.706 212.800 C 268.767 212.800,268.800 212.695,268.800 222.037 C 268.800 231.474,268.508 230.800,272.590 230.800 C 275.515 230.800,275.600 230.901,275.600 234.400 C 275.600 237.937,275.543 238.000,272.357 238.000 L 269.600 238.000 269.600 240.800 L 269.600 243.600 271.724 243.600 C 274.689 243.600,275.148 244.063,275.286 247.200 L 275.400 249.800 284.400 249.800 L 293.400 249.800 293.523 247.406 C 293.686 244.228,294.237 243.667,297.346 243.518 L 299.800 243.400 299.921 241.066 C 300.079 238.020,299.696 237.600,296.765 237.600 C 294.068 237.600,293.600 237.127,293.600 234.400 C 293.600 231.253,293.705 231.200,299.934 231.200 C 306.977 231.200,306.400 232.038,306.400 221.800 C 306.400 212.237,306.348 212.400,309.418 212.400 C 312.105 212.400,312.717 213.073,312.877 216.206 L 313.000 218.600 315.386 218.723 C 318.819 218.899,318.800 218.864,318.800 225.041 C 318.800 231.109,318.725 230.991,322.432 230.726 L 324.200 230.600 324.400 212.320 C 324.625 191.776,324.326 193.287,328.200 193.120 L 331.000 193.000 331.112 187.655 C 331.244 181.345,331.211 181.279,327.866 181.118 L 325.400 181.000 325.282 178.300 L 325.163 175.600 327.608 175.600 C 331.400 175.600,331.600 175.389,331.600 171.386 L 331.600 168.000 328.817 168.000 L 326.034 168.000 325.917 164.900 L 325.800 161.800 319.700 161.690 L 313.600 161.579 313.594 158.890 C 313.588 156.382,313.261 155.085,312.655 155.166 C 312.515 155.185,309.880 155.200,306.800 155.200 L 301.200 155.200 301.200 152.833 C 301.200 148.869,302.368 149.200,288.374 149.200 L 276.034 149.200 275.917 146.100 L 275.800 143.000 259.400 143.000 L 243.000 143.000 242.883 146.100 L 242.766 149.200 233.626 149.200 C 223.245 149.200,224.000 148.915,224.000 152.833 L 224.000 155.200 218.818 155.200 L 213.635 155.200 213.518 152.300 L 213.400 149.400 204.117 149.293 L 194.833 149.185 194.717 146.093 L 194.600 143.000 166.000 142.905 C 150.270 142.852,137.160 142.962,136.866 143.149 M337.600 171.120 C 337.600 174.790,337.883 175.200,340.420 175.200 C 344.148 175.200,344.800 174.693,344.800 171.794 C 344.800 167.961,344.839 168.000,340.957 168.000 L 337.600 168.000 337.600 171.120 M81.586 181.174 C 81.814 181.599,82.000 183.051,82.000 184.400 C 82.000 188.111,81.730 188.400,78.266 188.400 C 74.639 188.400,74.400 188.168,74.400 184.651 C 74.400 180.879,74.856 180.400,78.448 180.400 C 80.732 180.400,81.239 180.525,81.586 181.174 M100.429 200.565 C 100.147 200.905,100.008 202.141,100.080 203.665 L 100.200 206.200 102.735 206.320 C 104.259 206.392,105.495 206.253,105.835 205.971 C 106.541 205.385,106.606 201.166,105.920 200.480 C 105.234 199.794,101.015 199.859,100.429 200.565 M75.200 215.357 C 75.200 218.239,75.358 218.400,78.200 218.400 C 81.042 218.400,81.200 218.239,81.200 215.357 L 81.200 212.800 78.200 212.800 L 75.200 212.800 75.200 215.357 M250.267 219.067 C 249.801 219.533,249.977 224.217,250.480 224.720 C 250.744 224.984,251.968 225.200,253.200 225.200 C 254.432 225.200,255.656 224.984,255.920 224.720 C 256.184 224.456,256.400 223.232,256.400 222.000 C 256.400 220.768,256.184 219.544,255.920 219.280 C 255.417 218.777,250.733 218.601,250.267 219.067 M256.897 231.663 C 256.615 231.945,256.400 233.165,256.400 234.480 L 256.400 236.800 259.218 236.800 L 262.037 236.800 261.918 234.100 L 261.800 231.400 259.597 231.283 C 258.229 231.210,257.206 231.354,256.897 231.663 " stroke="none" fill="#ae6a49" fill-rule="evenodd"></path><path id="path8" d="" stroke="none" fill="#c6551c" fill-rule="evenodd"></path><path id="path9" d="" stroke="none" fill="#ff0000" fill-rule="evenodd"></path><path id="path10" d="" stroke="none" fill="#ff3333" fill-rule="evenodd"></path><path id="path11" d="M42.800 152.183 L 42.800 155.166 39.700 155.283 L 36.600 155.400 36.491 162.500 L 36.382 169.600 39.742 169.600 C 42.196 169.600,43.232 169.443,43.585 169.017 C 43.898 168.640,45.009 168.394,46.734 168.317 L 49.400 168.200 49.526 166.432 C 49.762 163.131,49.514 162.800,46.806 162.800 C 44.004 162.800,43.600 162.355,43.600 159.275 C 43.600 156.531,43.573 156.540,53.200 156.249 C 64.452 155.908,63.600 156.227,63.600 152.353 L 63.600 149.200 53.200 149.200 L 42.800 149.200 42.800 152.183 M92.800 152.200 L 92.800 155.200 80.800 155.200 L 68.800 155.200 68.800 158.167 C 68.800 162.822,67.585 162.400,80.994 162.400 C 94.334 162.400,93.498 162.638,93.679 158.785 L 93.800 156.200 100.200 156.200 L 106.600 156.200 106.800 162.200 L 107.000 168.200 109.600 168.200 L 112.200 168.200 112.324 166.005 C 112.521 162.531,112.770 162.400,119.182 162.400 C 125.505 162.400,125.603 162.352,125.594 159.220 C 125.584 155.645,126.058 155.817,115.815 155.679 L 106.800 155.557 106.800 152.379 L 106.800 149.200 99.800 149.200 L 92.800 149.200 92.800 152.200 M57.084 169.450 C 56.928 169.606,56.800 170.747,56.800 171.987 C 56.800 175.210,56.824 175.200,49.320 175.200 L 42.800 175.200 42.800 177.742 L 42.800 180.285 49.100 180.572 C 56.609 180.915,56.800 181.010,56.800 184.400 C 56.800 187.285,56.121 187.998,53.369 188.005 C 49.758 188.015,49.600 188.142,49.600 191.033 C 49.600 194.323,49.758 194.400,56.545 194.400 C 63.554 194.400,63.200 194.761,63.200 187.606 L 63.200 182.068 65.700 181.855 C 75.409 181.028,75.200 181.107,75.200 178.261 C 75.200 175.096,75.411 175.200,68.981 175.200 C 62.456 175.200,62.698 175.325,62.402 171.800 L 62.200 169.400 59.784 169.283 C 58.455 169.219,57.240 169.294,57.084 169.450 " stroke="none" fill="#d9a066" fill-rule="evenodd"></path></g></svg>