<?xml version="1.0" encoding="iso-8859-1"?>
<!-- Generator: Adobe Illustrator 16.0.0, SVG Export Plug-In . SVG Version: 6.00 Build 0)  -->
<!DOCTYPE svg PUBLIC "-//W3C//DTD SVG 1.1//EN" "http://www.w3.org/Graphics/SVG/1.1/DTD/svg11.dtd">
<svg version="1.1" id="Capa_1" xmlns="http://www.w3.org/2000/svg" xmlns:xlink="http://www.w3.org/1999/xlink" x="0px" y="0px"
	 width="30.611px" height="30.611px" viewBox="0 0 30.611 30.611" style="enable-background:new 0 0 30.611 30.611;"
	 xml:space="preserve">
<g>
	<path d="M29.525,16.74c-0.491-0.322-1.214-0.656-1.93-0.771c0.14-0.05,0.264-0.13,0.22-0.255c-0.84-2.364-3.709-4.104-5.453-5.873
		c-1.164-1.182-2.652-2.477-4.391-2.553c-3.646-0.16-8.288,2.652-11.487,4.063c-0.662,0.292-1.321,0.592-1.98,0.89
		c-2.028,0.919-3.94-2.494,1.495-3.365c0.897-0.145,1.568-0.16,1.997-1.193C9.25,4.665,5.725,4.694,3.985,5.289
		C3.891,5.321,3.547,5.475,3.703,5.63c0.646,0.648,0.936,1.112,1.954,1.156c0.101,0.005,0.19-0.021,0.284-0.055
		C8.542,5.8,3.787,7.469,5.423,7.536C3.068,7.44,2.125,8.095,0.554,9.917c-1.429,1.655,0.19,3.188,1.677,4.178
		c1.881,1.254,1.259,4.459-0.475,5.47c-0.082,0.047-0.143,0.119-0.135,0.217c0.139,1.791,0.933,3.049,0.897,4.906
		c-0.002,0.125,0.11,0.176,0.226,0.176c0.802-0.006,1.604-0.012,2.406-0.019c0.121,0,0.586-0.095,0.5-0.313
		c-0.798-2.039-1.307-2.219,0.596-3.662c0.798-0.605,0.991,0.847,0.802,1.33c-0.008,0.039,0.001,0.074,0.028,0.104
		c0.617,0.529,1.33,0.812,2.07,1.15c1.538,0.705,1.304,0.629,1.751,2.012c0.029,0.091,0.141,0.119,0.225,0.121
		c0.712,0.018,1.424,0.035,2.136,0.053c0.08,0.004,0.304-0.046,0.425-0.14c0.002,0.007,0.003,0.013,0.005,0.021
		c0.028,0.09,0.142,0.119,0.225,0.119c0.777,0,1.555,0,2.332,0c0.146,0,0.637-0.123,0.474-0.361
		c-0.503-0.74-1.468-1.012-0.925-1.812c0.809-1.191,1.616-2.385,2.426-3.576c1.002-1.479,1.138,4.426,1.129,5.121
		c-0.002,0.124,0.109,0.18,0.226,0.176c0.797-0.018,1.593-0.037,2.391-0.057c0.109-0.002,0.599-0.1,0.5-0.314
		c-0.462-1.002-0.912-5.281-0.956-5.291c2.282,0.586,0.034,1.555,1.256,2.889c2.093,2.285,4.855-2.526,5.241-4.241
		c0.015-0.063-0.021-0.103-0.067-0.129c0.111,0.019,0.222,0.036,0.336,0.083c0.323,0.132,0.61,0.382,0.883,0.595
		c0.339,0.267,0.609,0.578,1.064,0.455C31.243,18.9,29.985,17.104,29.525,16.74z M6.541,5.992C5.175,6.971,4.073,3.58,6.843,5.875
		c0.013,0.011,0.02,0.021,0.032,0.031C6.752,5.905,6.626,5.929,6.541,5.992z M5.147,7.97c0.239,0.012,0.526,0.035,0.816,0.041
		c-0.772,0.3-1.673,0.476-2.193,0.503c-1.04,0.055-1.807,1.282-2.297,2.019c-0.056,0.084-0.093,0.164-0.128,0.243
		C1.265,9.219,2.346,7.836,5.147,7.97z M13.545,24.865c-0.646-1.283-1.624-2.039-2.648-3.162c-0.809-0.885,1.382-3.395,2.739-2.688
		c1.926,1.003,1.792,0.261,0.817,2.601C13.929,22.876,13.391,23.684,13.545,24.865z M23.748,19.15
		c0.043-0.211-0.308-0.183-0.416-0.154c-0.584,0.006-1.169,0.013-1.754,0.02c-0.145-0.037-0.579,0.033-0.582,0.248
		c-0.015,1.186-0.028,2.373-0.044,3.559c-0.015,1.195,1.231,1.873,0.091,1.9c-1.187,0.028-1.252-4.186-1.565-5.562
		c-0.021-0.09-0.148-0.123-0.226-0.121c-2.391,0.037-3.335,3.215-4.546,5.001c-0.056,0.081-0.017,0.146,0.053,0.196
		c2.82,2.064-1.164,1.1-0.493-0.51c0.62-1.486,1.239-2.975,1.858-4.462c0.035-0.084-0.079-0.155-0.145-0.163
		c-1.348-0.191-2.308-0.582-3.476-1.643c-0.174-0.159-0.638-0.057-0.698,0.188c-0.419,1.676-0.871,2.662-1.856,3.887
		c-0.037,0.047-0.036,0.117,0.004,0.16c0.585,0.643,1.17,1.283,1.755,1.924c3.091,3.387-0.179,1.371,0.036,0.578
		c0.018-0.066-0.029-0.107-0.077-0.142c-1.076-0.756-3.621-1.049-3.368-2.625c0.008-0.039-0.001-0.073-0.028-0.104
		c-0.566-0.34-1.003-0.807-1.309-1.396c-0.121-0.17-0.519-0.046-0.628,0.076c-0.729,0.808-1.387,1.296-2.285,1.798
		c-0.072,0.041-0.155,0.127-0.135,0.217C4.005,22.416,4,23.268,4.28,23.552c2.108,2.151-1.022,0.431-1.025,0.583
		c0.028-1.484-1.616-4.342,0.283-4.471c0.134-0.01,0.383-0.098,0.409-0.256c0.262-1.598-0.135-3.195,0.254-4.805
		c0.014-0.059-0.023-0.119-0.077-0.141c-1.184-0.491-2.057-1.447-2.488-2.477c0.747,0.68,2.374,0.936,3.162,0.579
		c2.306-1.04,4.62-2.054,6.967-3.001c1.564-0.631,3.152-1.191,4.778-1.637c3.103-0.851,5.476,2.48,7.246,4.401
		c1.152,1.249,3.665,2.429,1.946,3.708c-0.818,0.609-0.155,1.91,0.344,2.414c0.03,0.031,0.076,0.045,0.126,0.055
		c0.02,0.005,0.045,0.006,0.068,0.008c0.009,0,0.016,0.002,0.024,0.002c0.022,0.001,0.042,0.006,0.069,0.004
		C28.857,18.386,22.382,25.715,23.748,19.15z M29.102,17.955c-0.57-0.342-1.256-0.254-1.88-0.158
		c-0.166,0.025-0.284,0.037-0.381,0.016c0.135-0.504,0.269-1.009,0.401-1.514c0.052,0.012,0.105,0.021,0.161,0.033
		c0.521,0.098,0.999,0.363,1.438,0.652c0.396,0.312,0.63,0.721,0.814,1.181c0.011,0.026,0.056,0.168,0.105,0.329
		C29.528,18.294,29.301,18.074,29.102,17.955z"/>
</g>
<g>
</g>
<g>
</g>
<g>
</g>
<g>
</g>
<g>
</g>
<g>
</g>
<g>
</g>
<g>
</g>
<g>
</g>
<g>
</g>
<g>
</g>
<g>
</g>
<g>
</g>
<g>
</g>
<g>
</g>
</svg>
