<svg id="svg" version="1.1" width="400" height="400" viewBox="0 0 400 400" xmlns="http://www.w3.org/2000/svg" xmlns:xlink="http://www.w3.org/1999/xlink" ><g id="svgg"><path id="path0" d="M99.200 121.000 L 99.200 124.000 96.000 124.000 L 92.800 124.000 92.800 127.200 L 92.800 130.400 81.200 130.400 L 69.600 130.400 69.600 134.000 L 69.600 137.600 81.138 137.600 C 94.503 137.600,94.000 137.744,94.000 133.911 C 94.000 131.374,94.202 131.200,97.153 131.200 C 99.519 131.200,100.000 130.719,100.000 128.353 C 100.000 125.346,100.140 125.200,103.019 125.200 C 104.413 125.200,105.664 125.020,105.800 124.800 C 105.947 124.562,108.471 124.400,112.024 124.400 L 118.000 124.400 118.000 121.200 L 118.000 118.000 108.600 118.000 L 99.200 118.000 99.200 121.000 M132.186 118.912 C 132.060 119.414,132.012 120.989,132.079 122.412 L 132.200 125.000 138.000 124.911 C 141.190 124.862,145.330 124.772,147.200 124.711 L 150.600 124.600 150.529 127.600 C 150.490 129.250,150.337 131.958,150.190 133.618 C 149.822 137.750,149.379 137.563,159.831 137.692 L 168.600 137.800 168.721 140.385 C 168.877 143.696,169.116 143.941,172.334 144.083 L 175.000 144.200 175.200 147.000 L 175.400 149.800 180.973 149.912 C 187.480 150.042,187.600 150.101,187.600 153.169 C 187.600 156.618,186.337 156.401,206.380 156.394 C 226.530 156.387,225.117 156.626,225.279 153.190 L 225.400 150.600 234.169 150.492 C 244.212 150.368,244.000 150.439,244.000 147.200 C 244.000 143.804,243.120 143.976,259.847 144.095 L 274.600 144.200 274.723 146.586 C 274.905 150.140,274.525 150.000,284.016 150.000 C 294.044 150.000,293.600 149.876,293.600 152.669 C 293.600 156.410,293.583 156.400,299.934 156.400 C 306.273 156.400,306.400 156.460,306.400 159.447 C 306.400 162.627,306.542 162.800,309.163 162.800 C 312.333 162.800,312.400 162.925,312.400 168.804 C 312.400 174.982,312.483 175.131,316.000 175.286 L 318.600 175.400 318.703 205.956 C 318.817 240.177,319.070 237.600,315.600 237.600 C 312.792 237.600,312.481 237.924,312.323 241.014 L 312.200 243.400 309.814 243.523 C 306.260 243.705,306.400 243.325,306.400 252.816 C 306.400 262.881,306.539 262.400,303.634 262.400 C 299.758 262.400,300.018 261.286,299.902 278.400 L 299.800 293.400 297.406 293.523 C 294.052 293.695,293.600 294.206,293.600 297.829 C 293.600 299.778,293.436 300.800,293.100 300.935 C 292.825 301.046,295.885 301.151,299.900 301.168 L 307.200 301.200 307.200 282.400 L 307.200 263.600 310.400 263.600 L 313.600 263.600 313.600 254.200 L 313.600 244.800 316.600 244.800 L 319.600 244.800 319.600 241.600 L 319.600 238.400 322.800 238.400 L 326.000 238.400 326.000 210.400 L 326.000 182.400 328.371 182.400 C 331.740 182.400,332.476 181.434,332.315 177.226 L 332.200 174.200 329.100 174.083 L 326.000 173.966 326.000 170.983 L 326.000 168.000 322.800 168.000 L 319.600 168.000 319.600 164.800 L 319.600 161.600 316.600 161.600 L 313.600 161.600 313.600 158.400 L 313.600 155.200 310.400 155.200 L 307.200 155.200 307.200 152.200 L 307.200 149.200 301.000 149.200 L 294.800 149.200 294.800 146.000 L 294.800 142.800 288.617 142.800 L 282.434 142.800 282.317 139.700 L 282.200 136.600 262.500 136.496 L 242.800 136.392 242.800 139.596 L 242.800 142.800 233.400 142.800 L 224.000 142.800 224.000 146.000 L 224.000 149.200 212.600 149.200 L 201.200 149.200 201.200 146.000 C 201.200 143.207,201.111 142.804,200.500 142.832 C 200.082 142.850,200.001 142.944,200.300 143.065 C 200.637 143.201,200.800 144.233,200.800 146.226 C 200.800 149.657,200.702 149.734,196.583 149.522 L 194.200 149.400 194.215 146.100 L 194.229 142.800 188.332 142.800 L 182.434 142.800 182.317 139.700 L 182.200 136.600 175.900 136.490 L 169.600 136.380 169.600 133.390 L 169.600 130.400 160.417 130.400 L 151.234 130.400 151.117 127.300 L 151.000 124.200 147.900 124.083 L 144.800 123.966 144.800 120.983 L 144.800 118.000 138.608 118.000 C 132.495 118.000,132.412 118.012,132.186 118.912 M181.918 139.903 C 182.056 143.324,181.578 143.727,177.627 143.518 L 175.400 143.400 175.278 141.017 C 175.062 136.823,175.124 136.748,178.712 136.883 L 181.800 137.000 181.918 139.903 M281.918 139.903 C 282.053 143.247,281.684 143.600,278.054 143.600 C 275.611 143.600,275.200 143.132,275.200 140.353 C 275.200 136.774,275.224 136.750,278.749 136.884 L 281.800 137.000 281.918 139.903 M55.200 155.400 L 55.200 161.600 52.200 161.600 L 49.200 161.600 49.200 171.000 L 49.200 180.400 46.000 180.400 L 42.800 180.400 42.800 187.600 L 42.800 194.800 46.000 194.800 L 49.200 194.800 49.200 198.000 L 49.200 201.200 52.200 201.200 L 55.200 201.200 55.200 204.200 L 55.200 207.200 77.900 207.201 L 100.600 207.202 100.471 204.036 C 100.312 200.151,99.919 199.693,96.594 199.523 L 94.200 199.400 94.000 197.000 L 93.800 194.600 91.000 194.600 L 88.200 194.600 88.000 197.268 C 87.731 200.856,88.975 200.600,71.800 200.600 C 54.551 200.600,55.876 200.881,55.667 197.179 L 55.510 194.400 53.055 194.394 C 49.428 194.385,49.563 194.666,49.689 187.370 L 49.800 181.000 52.200 180.897 C 56.810 180.699,56.369 181.645,56.492 171.694 L 56.600 163.000 59.500 162.882 L 62.400 162.765 62.400 165.333 C 62.400 168.520,62.770 168.881,65.866 168.721 L 68.200 168.600 68.324 166.421 C 68.540 162.609,68.388 162.400,65.392 162.400 L 62.800 162.400 62.800 157.032 C 62.800 149.630,62.556 149.206,58.300 149.203 L 55.200 149.200 55.200 155.400 M88.044 162.947 C 87.745 163.307,87.606 164.500,87.680 166.065 L 87.800 168.600 90.517 168.719 L 93.234 168.837 93.117 165.719 L 93.000 162.600 90.764 162.482 C 89.178 162.398,88.387 162.533,88.044 162.947 M112.880 169.280 C 112.551 169.609,112.400 171.564,112.400 175.480 L 112.400 181.200 109.849 181.200 C 106.736 181.200,106.479 181.463,106.321 184.815 L 106.200 187.400 100.400 187.600 L 94.600 187.800 94.600 190.800 L 94.600 193.800 99.945 193.912 C 106.405 194.047,106.400 194.050,106.400 190.351 L 106.400 187.600 109.186 187.600 C 112.509 187.600,112.800 187.282,112.800 183.644 L 112.800 181.235 115.700 181.118 L 118.600 181.000 118.712 175.455 C 118.787 171.707,118.674 169.730,118.363 169.355 C 117.785 168.659,113.559 168.601,112.880 169.280 M337.600 186.851 C 337.050 187.071,335.205 187.195,333.499 187.126 L 330.398 187.000 330.399 190.900 L 330.400 194.800 333.400 194.800 L 336.400 194.800 336.400 201.000 L 336.400 207.200 340.600 207.200 L 344.800 207.200 344.800 204.217 L 344.800 201.234 347.900 201.117 L 351.000 201.000 350.908 197.600 C 350.858 195.730,350.710 192.521,350.579 190.470 L 350.342 186.740 353.772 186.870 C 355.658 186.941,357.201 186.865,357.201 186.700 C 357.200 186.246,338.755 186.388,337.600 186.851 M175.670 194.115 C 175.435 194.399,175.188 195.794,175.121 197.215 L 175.000 199.800 172.334 199.917 C 169.116 200.059,168.877 200.304,168.721 203.615 L 168.600 206.200 166.015 206.321 C 162.663 206.479,162.400 206.736,162.400 209.849 L 162.400 212.400 159.880 212.400 C 156.297 212.400,156.406 212.115,156.358 221.580 C 156.334 226.101,156.199 231.420,156.058 233.400 L 155.800 237.000 153.200 237.000 L 150.600 237.000 150.477 234.614 C 150.301 231.174,150.351 231.200,144.031 231.200 C 137.210 231.200,137.600 231.578,137.600 224.969 C 137.600 218.473,138.002 218.853,130.973 218.712 L 125.400 218.600 125.286 216.000 C 125.148 212.873,124.687 212.400,121.773 212.400 C 119.215 212.400,118.879 212.024,118.723 208.986 L 118.600 206.600 112.695 206.243 C 105.249 205.792,105.200 205.820,105.200 210.462 L 105.200 213.600 108.400 213.600 L 111.600 213.600 111.600 216.600 L 111.600 219.600 114.800 219.600 L 118.000 219.600 118.000 222.800 L 118.000 226.000 121.000 226.000 L 124.000 226.000 124.000 256.200 L 124.000 286.400 121.000 286.400 L 118.000 286.400 118.000 289.600 L 118.000 292.800 114.800 292.800 L 111.600 292.800 111.600 297.000 L 111.600 301.200 128.300 301.168 C 137.485 301.151,144.775 301.046,144.500 300.935 C 144.156 300.796,144.000 299.686,144.000 297.367 L 144.000 294.000 146.500 293.994 C 150.553 293.984,150.197 296.469,150.050 269.210 C 149.950 250.710,150.033 245.042,150.409 244.589 C 150.794 244.125,152.018 244.000,156.187 244.000 C 163.502 244.000,162.800 245.733,162.800 227.669 L 162.800 212.800 165.351 212.800 C 168.464 212.800,168.721 212.537,168.879 209.185 L 169.000 206.600 171.585 206.479 C 174.970 206.320,175.200 206.084,175.200 202.769 L 175.200 200.035 178.100 199.918 L 181.000 199.800 181.120 197.265 C 181.192 195.741,181.053 194.505,180.771 194.165 C 180.167 193.437,176.264 193.399,175.670 194.115 M263.062 194.331 C 262.597 194.846,262.400 195.796,262.400 197.531 L 262.400 200.000 259.880 200.000 C 256.169 200.000,256.400 198.949,256.400 215.831 C 256.400 232.638,256.153 231.489,259.814 231.677 L 262.200 231.800 262.200 234.400 L 262.200 237.000 256.627 237.112 C 250.079 237.243,250.071 237.247,249.917 240.734 L 249.800 243.400 247.346 243.518 C 244.237 243.667,243.686 244.228,243.523 247.406 L 243.400 249.800 222.245 249.904 C 198.471 250.020,200.003 250.230,199.994 246.851 C 199.985 243.568,200.117 243.639,193.784 243.512 L 188.200 243.400 188.082 240.700 L 187.963 238.000 190.320 238.000 C 193.834 238.000,194.000 237.698,194.000 231.317 C 194.000 225.144,193.978 225.108,190.335 225.280 L 187.800 225.400 187.688 230.973 C 187.558 237.490,187.503 237.600,184.400 237.600 C 181.374 237.600,181.342 237.662,181.005 244.100 L 180.718 249.600 178.459 249.606 C 174.974 249.616,175.029 249.516,174.800 256.284 L 174.600 262.200 172.000 262.314 C 168.140 262.484,168.400 261.042,168.400 282.269 L 168.400 300.786 158.900 300.900 C 150.454 301.002,150.876 301.025,162.700 301.108 L 176.000 301.200 176.000 282.400 L 176.000 263.600 179.200 263.600 L 182.400 263.600 182.400 257.400 L 182.400 251.200 190.800 251.200 L 199.200 251.200 199.200 254.200 L 199.200 257.200 222.000 257.200 L 244.800 257.200 244.800 254.217 L 244.800 251.234 247.900 251.117 L 251.000 251.000 251.117 247.900 L 251.234 244.800 259.617 244.800 L 268.000 244.800 268.000 265.600 L 268.000 286.400 264.800 286.400 L 261.600 286.400 261.600 289.600 L 261.600 292.800 258.386 292.800 L 255.172 292.800 255.286 296.900 L 255.400 301.000 265.800 301.072 C 271.520 301.112,275.975 301.052,275.700 300.939 C 275.356 300.797,275.200 299.684,275.200 297.367 L 275.200 294.000 277.720 294.000 C 280.817 294.000,281.200 293.648,281.200 290.800 C 281.200 288.004,281.604 287.600,284.400 287.600 C 287.833 287.600,287.600 289.207,287.600 265.534 C 287.600 241.537,287.932 243.600,284.075 243.600 C 281.624 243.600,281.277 243.199,281.123 240.186 L 281.000 237.800 275.427 237.688 C 268.409 237.548,268.846 237.979,268.711 231.060 L 268.600 225.400 266.214 225.277 C 262.585 225.091,262.800 225.918,262.800 212.169 L 262.800 200.035 265.700 199.918 L 268.600 199.800 268.720 197.265 C 268.792 195.741,268.653 194.505,268.371 194.165 C 267.650 193.296,263.892 193.414,263.062 194.331 M142.800 265.600 L 142.800 292.800 139.990 292.800 C 136.690 292.800,136.400 293.158,136.400 297.226 L 136.400 299.600 128.061 299.600 L 119.722 299.600 119.450 294.180 C 119.109 287.386,118.539 287.934,125.615 288.253 L 131.573 288.522 131.987 287.435 C 132.254 286.731,132.400 277.901,132.400 262.374 L 132.400 238.400 137.600 238.400 L 142.800 238.400 142.800 265.600 M280.400 268.800 L 280.400 286.400 278.200 286.400 L 276.000 286.400 276.000 268.800 L 276.000 251.200 278.200 251.200 L 280.400 251.200 280.400 268.800 M274.000 290.600 L 274.000 292.800 271.800 292.800 L 269.600 292.800 269.600 290.600 L 269.600 288.400 271.800 288.400 L 274.000 288.400 274.000 290.600 M268.000 297.200 L 268.000 299.600 265.800 299.600 L 263.600 299.600 263.600 297.200 L 263.600 294.800 265.800 294.800 L 268.000 294.800 268.000 297.200 " stroke="none" fill="#000000" fill-rule="evenodd"></path><path id="path1" d="M118.000 121.200 L 118.000 124.400 112.024 124.400 C 108.471 124.400,105.947 124.562,105.800 124.800 C 105.664 125.020,104.413 125.200,103.019 125.200 C 100.140 125.200,100.000 125.346,100.000 128.353 C 100.000 130.719,99.519 131.200,97.153 131.200 C 94.189 131.200,94.000 131.366,94.000 133.981 C 94.000 137.725,94.447 137.600,81.084 137.600 L 69.630 137.600 69.498 133.900 C 69.425 131.865,69.329 134.529,69.283 139.820 C 69.224 146.671,69.062 149.578,68.720 149.920 C 68.008 150.632,63.564 150.530,62.489 149.777 C 61.472 149.065,61.324 149.482,62.187 150.624 C 62.636 151.217,62.778 152.699,62.787 156.900 L 62.800 162.400 65.392 162.400 C 68.388 162.400,68.540 162.609,68.324 166.421 L 68.200 168.600 65.866 168.721 C 62.770 168.881,62.400 168.520,62.400 165.333 L 62.400 162.765 59.500 162.882 L 56.600 163.000 56.492 171.694 C 56.369 181.645,56.810 180.699,52.200 180.897 L 49.800 181.000 49.689 187.370 C 49.563 194.666,49.428 194.385,53.055 194.394 L 55.510 194.400 55.667 197.179 C 55.876 200.881,54.551 200.600,71.800 200.600 C 88.975 200.600,87.731 200.856,88.000 197.268 L 88.200 194.600 91.000 194.600 L 93.800 194.600 94.000 197.000 L 94.200 199.400 96.654 199.518 C 99.903 199.674,100.327 200.173,100.481 204.010 L 100.600 207.000 102.945 207.121 C 104.714 207.213,105.474 207.076,106.040 206.564 C 106.713 205.954,107.391 205.922,112.695 206.243 L 118.600 206.600 118.723 208.986 C 118.879 212.024,119.215 212.400,121.773 212.400 C 124.687 212.400,125.148 212.873,125.286 216.000 L 125.400 218.600 130.973 218.712 C 138.002 218.853,137.600 218.473,137.600 224.969 C 137.600 231.578,137.210 231.200,144.031 231.200 C 150.351 231.200,150.301 231.174,150.477 234.614 L 150.600 237.000 153.200 237.000 L 155.800 237.000 156.058 233.400 C 156.199 231.420,156.334 226.101,156.358 221.580 C 156.406 212.115,156.297 212.400,159.880 212.400 L 162.400 212.400 162.400 209.849 C 162.400 206.736,162.663 206.479,166.015 206.321 L 168.600 206.200 168.717 203.534 C 168.859 200.316,169.104 200.077,172.415 199.921 L 175.000 199.800 175.121 197.215 C 175.274 193.963,175.583 193.600,178.200 193.600 C 180.906 193.600,181.272 194.059,181.120 197.265 L 181.000 199.800 178.100 199.918 L 175.200 200.035 175.200 202.769 C 175.200 206.084,174.970 206.320,171.585 206.479 L 169.000 206.600 168.879 209.185 C 168.721 212.537,168.464 212.800,165.351 212.800 L 162.800 212.800 162.800 227.738 C 162.800 245.753,163.520 244.000,156.117 244.000 C 152.010 244.000,150.794 244.125,150.409 244.589 C 150.033 245.042,149.950 250.710,150.050 269.210 C 150.197 296.469,150.553 293.984,146.500 293.994 L 144.000 294.000 144.000 297.357 C 144.000 301.496,142.647 301.120,156.700 300.887 L 168.400 300.693 168.400 282.223 C 168.400 261.048,168.140 262.484,172.000 262.314 L 174.600 262.200 174.800 256.284 C 175.029 249.516,174.974 249.616,178.459 249.606 L 180.718 249.600 181.005 244.100 C 181.342 237.662,181.374 237.600,184.400 237.600 C 187.503 237.600,187.558 237.490,187.688 230.973 L 187.800 225.400 190.335 225.280 C 193.983 225.107,194.000 225.136,194.000 231.387 C 194.000 237.721,193.842 238.000,190.250 238.000 L 187.963 238.000 188.082 240.700 L 188.200 243.400 193.784 243.512 C 200.117 243.639,199.985 243.568,199.994 246.851 C 200.003 250.230,198.471 250.020,222.245 249.904 L 243.400 249.800 243.518 247.346 C 243.667 244.237,244.228 243.686,247.406 243.523 L 249.800 243.400 249.917 240.734 C 250.071 237.247,250.079 237.243,256.627 237.112 L 262.200 237.000 262.200 234.400 L 262.200 231.800 259.814 231.677 C 256.153 231.489,256.400 232.638,256.400 215.831 C 256.400 198.949,256.169 200.000,259.880 200.000 L 262.400 200.000 262.400 197.462 C 262.400 194.272,263.006 193.600,265.883 193.600 C 268.498 193.600,268.871 194.081,268.720 197.265 L 268.600 199.800 265.700 199.918 L 262.800 200.035 262.800 212.169 C 262.800 225.918,262.585 225.091,266.214 225.277 L 268.600 225.400 268.712 230.973 C 268.852 237.991,268.421 237.554,275.340 237.689 L 281.000 237.800 281.123 240.186 C 281.277 243.199,281.624 243.600,284.075 243.600 C 287.932 243.600,287.600 241.537,287.600 265.534 C 287.600 289.207,287.833 287.600,284.400 287.600 C 281.604 287.600,281.200 288.004,281.200 290.800 C 281.200 293.648,280.817 294.000,277.720 294.000 L 275.200 294.000 275.200 297.357 C 275.200 301.502,274.477 301.200,284.400 301.200 C 294.223 301.200,293.600 301.429,293.600 297.819 C 293.600 294.207,294.054 293.695,297.406 293.523 L 299.800 293.400 299.902 278.400 C 300.018 261.286,299.758 262.400,303.634 262.400 C 306.539 262.400,306.400 262.881,306.400 252.816 C 306.400 243.325,306.260 243.705,309.814 243.523 L 312.200 243.400 312.323 241.014 C 312.481 237.924,312.792 237.600,315.600 237.600 C 319.070 237.600,318.817 240.177,318.703 205.956 L 318.600 175.400 316.000 175.286 C 312.483 175.131,312.400 174.982,312.400 168.804 C 312.400 162.925,312.333 162.800,309.163 162.800 C 306.542 162.800,306.400 162.627,306.400 159.447 C 306.400 156.460,306.273 156.400,299.934 156.400 C 293.583 156.400,293.600 156.410,293.600 152.669 C 293.600 149.876,294.044 150.000,284.016 150.000 C 274.525 150.000,274.905 150.140,274.723 146.586 L 274.600 144.200 259.847 144.095 C 243.120 143.976,244.000 143.804,244.000 147.200 C 244.000 150.439,244.212 150.368,234.169 150.492 L 225.400 150.600 225.279 153.190 C 225.117 156.626,226.530 156.387,206.380 156.394 C 186.337 156.401,187.600 156.618,187.600 153.169 C 187.600 150.101,187.480 150.042,180.973 149.912 L 175.400 149.800 175.200 147.000 L 175.000 144.200 172.334 144.083 C 169.116 143.941,168.877 143.696,168.721 140.385 L 168.600 137.800 159.831 137.692 C 149.379 137.563,149.822 137.750,150.190 133.618 C 150.337 131.958,150.490 129.250,150.529 127.600 L 150.600 124.600 147.200 124.711 C 145.330 124.772,141.190 124.862,138.000 124.911 L 132.200 125.000 132.200 121.537 C 132.200 119.632,132.065 118.282,131.900 118.537 C 131.735 118.791,131.702 122.960,131.828 127.800 C 132.097 138.165,132.247 137.730,128.315 138.000 L 125.400 138.200 125.200 141.000 L 125.000 143.800 119.427 143.912 C 112.920 144.042,112.800 144.101,112.800 147.169 C 112.800 150.487,113.061 150.400,103.149 150.400 C 92.375 150.400,93.200 150.944,93.200 143.833 C 93.200 137.521,93.319 137.312,97.006 137.123 L 99.400 137.000 99.523 134.606 C 99.688 131.389,100.266 130.800,103.262 130.800 L 105.600 130.800 105.600 128.449 C 105.600 125.122,105.762 125.040,112.760 124.800 L 118.600 124.600 118.716 121.300 C 118.790 119.207,118.680 118.000,118.416 118.000 C 118.163 118.000,118.000 119.250,118.000 121.200 M175.389 137.700 C 175.261 138.213,175.210 139.706,175.278 141.017 L 175.400 143.400 177.627 143.518 C 181.578 143.727,182.056 143.324,181.918 139.903 L 181.800 137.000 178.712 136.883 C 175.766 136.772,175.613 136.810,175.389 137.700 M275.449 137.417 C 275.015 138.547,275.180 142.620,275.680 143.120 C 276.261 143.701,279.547 143.752,280.992 143.203 C 282.001 142.820,282.031 142.711,281.918 139.903 L 281.800 137.000 278.749 136.884 C 276.234 136.788,275.654 136.882,275.449 137.417 M194.192 144.101 C 194.058 144.817,194.005 146.302,194.074 147.401 L 194.200 149.400 196.583 149.522 C 200.700 149.734,200.800 149.656,200.800 146.235 C 200.800 142.809,200.790 142.800,196.985 142.800 L 194.436 142.800 194.192 144.101 M93.117 165.719 L 93.234 168.837 90.517 168.719 L 87.800 168.600 87.680 166.065 C 87.523 162.754,87.888 162.330,90.764 162.482 L 93.000 162.600 93.117 165.719 M74.600 165.800 L 74.600 168.200 72.100 168.319 L 69.600 168.438 69.600 165.800 L 69.600 163.162 72.100 163.281 L 74.600 163.400 74.600 165.800 M99.400 165.800 L 99.400 168.200 97.100 168.320 L 94.800 168.440 94.800 165.800 L 94.800 163.160 97.100 163.280 L 99.400 163.400 99.400 165.800 M118.363 169.355 C 118.674 169.730,118.787 171.707,118.712 175.455 L 118.600 181.000 115.700 181.118 L 112.800 181.235 112.800 183.644 C 112.800 187.282,112.509 187.600,109.186 187.600 L 106.400 187.600 106.400 190.351 C 106.400 194.050,106.405 194.047,99.945 193.912 L 94.600 193.800 94.600 190.800 L 94.600 187.800 100.400 187.600 L 106.200 187.400 106.321 184.815 C 106.479 181.463,106.736 181.200,109.849 181.200 L 112.400 181.200 112.400 175.480 C 112.400 171.564,112.551 169.609,112.880 169.280 C 113.559 168.601,117.785 168.659,118.363 169.355 M81.128 175.314 C 81.363 175.596,81.610 176.901,81.677 178.214 L 81.800 180.600 84.194 180.723 C 87.372 180.886,87.933 181.437,88.082 184.546 L 88.200 187.000 90.697 187.119 C 93.575 187.256,93.735 187.489,93.524 191.221 L 93.400 193.400 91.200 193.504 C 87.200 193.692,87.252 193.652,87.118 196.703 L 87.000 199.400 72.000 199.400 L 57.000 199.400 56.879 196.800 C 56.729 193.585,56.591 193.447,53.281 193.200 L 50.600 193.000 50.488 187.856 C 50.356 181.829,50.458 181.606,53.349 181.586 C 54.477 181.578,55.850 181.314,56.400 181.000 C 56.963 180.678,58.492 180.422,59.900 180.414 L 62.400 180.400 62.400 177.833 C 62.400 176.154,62.573 175.197,62.900 175.065 C 64.112 174.576,80.704 174.802,81.128 175.314 M331.279 181.611 C 330.531 182.559,330.380 183.175,330.479 184.889 L 330.600 187.000 333.200 187.124 C 334.630 187.192,336.385 187.139,337.100 187.006 L 338.400 186.764 338.400 184.062 C 338.400 180.682,338.117 180.394,334.820 180.422 C 332.415 180.442,332.124 180.540,331.279 181.611 M350.400 190.010 C 350.400 194.414,350.653 194.800,353.538 194.800 C 356.980 194.800,357.259 194.457,357.118 190.392 L 357.000 187.000 353.700 186.884 L 350.400 186.768 350.400 190.010 M132.400 262.374 C 132.400 277.901,132.254 286.731,131.987 287.435 L 131.573 288.522 125.615 288.253 C 118.539 287.934,119.109 287.386,119.450 294.180 L 119.722 299.600 128.061 299.600 L 136.400 299.600 136.400 297.226 C 136.400 293.158,136.690 292.800,139.990 292.800 L 142.800 292.800 142.800 265.600 L 142.800 238.400 137.600 238.400 L 132.400 238.400 132.400 262.374 M276.000 268.800 L 276.000 286.400 278.200 286.400 L 280.400 286.400 280.400 268.800 L 280.400 251.200 278.200 251.200 L 276.000 251.200 276.000 268.800 M269.600 290.600 L 269.600 292.800 271.800 292.800 L 274.000 292.800 274.000 290.600 L 274.000 288.400 271.800 288.400 L 269.600 288.400 269.600 290.600 M263.600 297.200 L 263.600 299.600 265.800 299.600 L 268.000 299.600 268.000 297.200 L 268.000 294.800 265.800 294.800 L 263.600 294.800 263.600 297.200 " stroke="none" fill="#222034" fill-rule="evenodd"></path><path id="path2" d="M118.789 121.200 L 118.600 124.600 112.760 124.800 C 105.762 125.040,105.600 125.122,105.600 128.449 L 105.600 130.800 103.262 130.800 C 100.266 130.800,99.688 131.389,99.523 134.606 L 99.400 137.000 97.006 137.123 C 93.319 137.312,93.200 137.521,93.200 143.833 C 93.200 150.944,92.375 150.400,103.149 150.400 C 113.061 150.400,112.800 150.487,112.800 147.169 C 112.800 144.101,112.920 144.042,119.427 143.912 L 125.000 143.800 125.200 141.000 L 125.400 138.200 128.315 138.000 C 130.283 137.865,131.362 137.605,131.635 137.200 C 132.104 136.503,131.972 118.378,131.500 118.665 C 131.335 118.765,131.200 122.865,131.200 127.775 C 131.200 138.001,131.383 137.500,127.585 137.679 L 125.000 137.800 124.882 140.266 C 124.726 143.525,124.661 143.558,118.173 143.688 L 112.600 143.800 112.400 146.600 L 112.200 149.400 103.200 149.400 L 94.200 149.400 94.200 143.800 L 94.200 138.200 96.868 138.000 C 98.335 137.890,99.685 137.650,99.868 137.468 C 100.050 137.285,100.290 135.935,100.400 134.468 L 100.600 131.800 103.000 131.685 C 105.945 131.544,106.400 131.046,106.400 127.966 C 106.400 125.133,106.240 125.200,112.984 125.200 C 119.385 125.200,119.284 125.270,119.107 120.938 L 118.979 117.800 118.789 121.200 M68.581 130.769 C 68.706 130.972,68.688 135.310,68.540 140.409 L 68.270 149.679 65.123 149.536 C 62.519 149.418,62.094 149.480,62.664 149.896 C 63.543 150.539,68.083 150.557,68.720 149.920 C 69.357 149.283,69.412 130.400,68.776 130.400 C 68.543 130.400,68.455 130.566,68.581 130.769 M69.600 165.800 L 69.600 168.438 72.100 168.319 L 74.600 168.200 74.600 165.800 L 74.600 163.400 72.100 163.281 L 69.600 163.162 69.600 165.800 M94.800 165.800 L 94.800 168.440 97.100 168.320 L 99.400 168.200 99.400 165.800 L 99.400 163.400 97.100 163.280 L 94.800 163.160 94.800 165.800 M62.900 175.065 C 62.573 175.197,62.400 176.154,62.400 177.833 L 62.400 180.400 59.900 180.414 C 58.492 180.422,56.963 180.678,56.400 181.000 C 55.850 181.314,54.477 181.578,53.349 181.586 C 50.458 181.606,50.356 181.829,50.488 187.856 L 50.600 193.000 53.281 193.200 C 56.591 193.447,56.729 193.585,56.879 196.800 L 57.000 199.400 72.000 199.400 L 87.000 199.400 87.118 196.703 C 87.252 193.652,87.200 193.692,91.200 193.504 L 93.400 193.400 93.524 191.221 C 93.735 187.489,93.575 187.256,90.697 187.119 L 88.200 187.000 88.082 184.546 C 87.933 181.437,87.372 180.886,84.194 180.723 L 81.800 180.600 81.677 178.214 C 81.610 176.901,81.363 175.596,81.128 175.314 C 80.704 174.802,64.112 174.576,62.900 175.065 M80.723 178.194 C 80.888 181.416,81.464 182.000,84.480 182.000 L 86.837 182.000 86.718 184.700 L 86.600 187.400 84.000 187.717 C 74.679 188.853,74.479 188.786,74.317 184.495 L 74.200 181.400 69.031 181.288 C 63.036 181.157,63.215 181.047,63.206 184.886 C 63.199 188.074,62.846 188.400,59.400 188.400 C 55.935 188.400,55.600 188.083,55.600 184.810 C 55.600 181.491,55.635 181.460,59.800 181.200 L 63.000 181.000 63.111 178.800 C 63.172 177.590,63.303 176.371,63.401 176.092 C 63.541 175.698,65.495 175.608,72.091 175.692 L 80.600 175.800 80.723 178.194 M92.800 190.600 L 92.800 192.800 90.200 192.800 L 87.600 192.800 87.600 190.600 L 87.600 188.400 90.200 188.400 L 92.800 188.400 92.800 190.600 " stroke="none" fill="#49475e" fill-rule="evenodd"></path><path id="path3" d="M130.937 122.200 C 130.939 123.960,131.009 124.630,131.093 123.689 C 131.178 122.749,131.177 121.309,131.091 120.489 C 131.005 119.670,130.936 120.440,130.937 122.200 M109.682 125.496 C 111.158 125.573,113.678 125.573,115.282 125.497 C 116.887 125.421,115.680 125.358,112.600 125.358 C 109.520 125.357,108.207 125.419,109.682 125.496 M105.869 130.963 C 105.707 131.386,104.905 131.596,103.120 131.680 L 100.600 131.800 100.400 134.515 C 100.267 136.320,99.999 137.357,99.600 137.609 C 99.225 137.846,99.182 137.990,99.486 137.994 C 100.299 138.004,100.800 136.569,100.800 134.226 L 100.800 132.000 103.151 132.000 C 105.313 132.000,106.980 131.246,106.306 130.573 C 106.192 130.459,105.996 130.634,105.869 130.963 M68.542 134.200 C 68.541 136.180,68.608 137.040,68.692 136.112 C 68.776 135.184,68.777 133.564,68.695 132.512 C 68.612 131.460,68.543 132.220,68.542 134.200 M126.700 137.489 C 127.415 137.578,128.585 137.578,129.300 137.489 C 130.015 137.401,129.430 137.328,128.000 137.328 C 126.570 137.328,125.985 137.401,126.700 137.489 M94.267 138.267 C 93.898 138.636,93.929 149.109,94.300 149.338 C 94.465 149.440,94.600 146.931,94.600 143.762 C 94.600 140.593,94.585 138.000,94.567 138.000 C 94.548 138.000,94.413 138.120,94.267 138.267 M124.524 140.600 C 124.526 141.920,124.601 142.412,124.690 141.693 C 124.779 140.974,124.777 139.894,124.686 139.293 C 124.595 138.692,124.522 139.280,124.524 140.600 M112.486 143.700 C 112.031 144.252,111.632 149.734,112.079 149.282 C 112.232 149.127,112.412 147.830,112.479 146.400 L 112.600 143.800 118.400 143.583 L 124.200 143.366 118.549 143.283 C 114.429 143.223,112.786 143.335,112.486 143.700 M83.300 187.487 C 83.905 187.578,84.895 187.578,85.500 187.487 C 86.105 187.395,85.610 187.320,84.400 187.320 C 83.190 187.320,82.695 187.395,83.300 187.487 " stroke="none" fill="#55551c" fill-rule="evenodd"></path><path id="path4" d="" stroke="none" fill="#993333" fill-rule="evenodd"></path><path id="path5" d="M130.799 131.081 C 130.689 134.426,130.740 137.022,130.911 136.850 C 131.083 136.678,131.172 133.941,131.110 130.769 L 130.997 125.000 130.799 131.081 M106.528 128.400 C 106.528 129.830,106.601 130.415,106.689 129.700 C 106.778 128.985,106.778 127.815,106.689 127.100 C 106.601 126.385,106.528 126.970,106.528 128.400 M100.269 137.364 C 100.103 137.796,99.285 137.996,97.320 138.081 L 94.600 138.200 94.600 143.800 L 94.600 149.400 103.200 149.400 L 111.800 149.400 111.834 146.800 L 111.867 144.200 111.715 146.700 L 111.562 149.200 103.181 149.200 L 94.800 149.200 94.800 143.800 L 94.800 138.400 97.351 138.400 C 99.703 138.400,101.408 137.675,100.706 136.973 C 100.592 136.859,100.395 137.035,100.269 137.364 M68.088 143.280 L 68.000 149.160 65.700 149.304 L 63.400 149.449 65.713 149.524 C 68.569 149.618,68.454 149.910,68.300 142.981 L 68.175 137.400 68.088 143.280 M115.900 143.097 C 117.495 143.173,120.105 143.173,121.700 143.097 C 123.295 143.021,121.990 142.959,118.800 142.959 C 115.610 142.959,114.305 143.021,115.900 143.097 M63.474 175.859 C 63.323 176.010,63.200 177.273,63.200 178.667 L 63.200 181.200 60.174 181.200 C 55.929 181.200,55.600 181.443,55.600 184.586 C 55.600 187.904,56.075 188.400,59.255 188.400 C 62.963 188.400,63.200 188.158,63.200 184.375 L 63.200 181.177 68.700 181.289 L 74.200 181.400 74.400 184.516 C 74.539 186.681,74.783 187.746,75.200 188.009 C 76.142 188.603,80.469 188.463,81.746 187.798 C 82.376 187.469,83.771 187.200,84.846 187.200 L 86.800 187.200 86.800 184.600 L 86.800 182.000 84.462 182.000 C 81.466 182.000,80.888 181.411,80.723 178.194 L 80.600 175.800 72.174 175.692 C 67.540 175.633,63.625 175.708,63.474 175.859 M81.074 181.270 C 82.119 182.251,82.422 186.218,81.520 187.120 C 80.799 187.841,75.821 187.749,75.202 187.003 C 74.512 186.171,74.841 181.272,75.621 180.779 C 76.783 180.043,80.085 180.340,81.074 181.270 M62.721 184.134 C 62.880 187.209,62.510 187.600,59.431 187.600 C 56.425 187.600,56.000 187.228,56.000 184.600 C 56.000 181.856,56.406 181.545,59.796 181.684 L 62.600 181.800 62.721 184.134 M87.600 190.600 L 87.600 192.800 90.200 192.800 L 92.800 192.800 92.800 190.600 L 92.800 188.400 90.200 188.400 L 87.600 188.400 87.600 190.600 " stroke="none" fill="#605d79" fill-rule="evenodd"></path><path id="path6" d="" stroke="none" fill="#8e5555" fill-rule="evenodd"></path><path id="path7" d="M37.600 118.400 C 37.270 118.613,35.515 118.791,33.700 118.794 L 30.400 118.800 30.400 125.176 C 30.400 132.380,30.226 132.014,33.791 132.300 L 36.299 132.501 36.500 135.009 C 36.785 138.562,36.464 138.400,43.224 138.400 L 49.200 138.400 49.200 141.120 C 49.200 144.833,49.139 144.800,55.880 144.800 L 61.600 144.800 61.600 147.000 L 61.600 149.200 64.737 149.200 L 67.874 149.200 68.150 139.946 C 68.302 134.857,68.330 130.597,68.213 130.480 C 68.096 130.363,68.000 131.917,68.000 133.933 L 68.000 137.600 65.880 137.600 C 63.209 137.600,62.800 137.175,62.800 134.400 C 62.800 131.247,62.707 131.200,56.400 131.200 C 50.020 131.200,50.000 131.189,50.000 127.720 L 50.000 125.200 47.480 125.200 C 44.229 125.200,44.000 124.932,44.000 121.120 L 44.000 118.000 41.100 118.006 C 39.505 118.009,37.930 118.187,37.600 118.400 M130.652 118.900 C 130.519 119.395,130.408 123.634,130.405 128.319 L 130.400 136.838 127.900 136.719 L 125.400 136.600 125.200 131.000 L 125.000 125.400 122.300 125.282 L 119.600 125.163 119.519 121.682 L 119.437 118.200 119.301 121.587 C 119.133 125.773,119.450 125.586,112.500 125.594 L 106.800 125.600 106.800 128.124 C 106.800 131.459,106.386 131.942,103.400 132.085 L 101.000 132.200 100.879 134.785 C 100.721 138.137,100.464 138.400,97.351 138.400 L 94.800 138.400 94.800 143.800 L 94.800 149.200 103.200 149.200 L 111.600 149.200 111.600 146.800 C 111.600 142.999,111.957 142.800,118.782 142.800 L 124.363 142.800 124.482 140.100 L 124.600 137.400 127.600 137.200 L 130.600 137.000 130.800 128.000 C 130.910 123.050,131.146 118.775,131.324 118.500 C 131.502 118.225,131.478 118.000,131.270 118.000 C 131.063 118.000,130.785 118.405,130.652 118.900 M118.800 128.120 C 118.800 131.133,118.664 131.200,112.520 131.200 L 107.200 131.200 107.200 128.600 L 107.200 126.000 113.000 126.000 L 118.800 126.000 118.800 128.120 M77.107 180.690 C 77.826 180.779,78.906 180.777,79.507 180.686 C 80.108 180.595,79.520 180.522,78.200 180.524 C 76.880 180.526,76.388 180.601,77.107 180.690 " stroke="none" fill="#796653" fill-rule="evenodd"></path><path id="path8" d="M75.190 181.826 C 73.802 185.477,74.904 187.600,78.186 187.600 C 81.911 187.600,83.527 184.462,81.223 181.700 C 80.036 180.278,75.745 180.368,75.190 181.826 M56.496 182.064 C 55.894 182.666,55.841 185.756,56.414 186.826 C 56.757 187.466,57.266 187.600,59.365 187.600 C 62.516 187.600,62.881 187.223,62.721 184.134 L 62.600 181.800 59.796 181.684 C 57.958 181.609,56.820 181.740,56.496 182.064 M80.600 184.400 L 80.600 187.000 78.200 187.000 L 75.800 187.000 75.677 184.848 C 75.497 181.682,75.614 181.540,78.295 181.680 L 80.600 181.800 80.600 184.400 M61.919 184.500 L 61.800 187.000 59.400 187.000 L 57.000 187.000 56.876 185.051 C 56.692 182.151,56.827 182.000,59.607 182.000 L 62.038 182.000 61.919 184.500 " stroke="none" fill="#79769a" fill-rule="evenodd"></path><path id="path9" d="M30.880 112.080 C 30.589 112.371,30.400 113.787,30.400 115.680 L 30.400 118.800 33.626 118.800 C 38.182 118.800,38.400 118.628,38.400 115.029 C 38.400 112.714,38.265 112.034,37.767 111.843 C 36.614 111.400,31.379 111.581,30.880 112.080 M124.414 112.374 C 124.186 112.799,124.000 114.239,124.000 115.574 L 124.000 118.000 121.800 118.000 L 119.600 118.000 119.600 121.582 L 119.600 125.163 122.300 125.282 L 125.000 125.400 125.200 131.000 L 125.400 136.600 127.900 136.719 L 130.400 136.838 130.405 128.319 C 130.411 118.961,130.527 118.000,131.647 118.000 C 132.302 118.000,132.400 117.683,132.400 115.574 C 132.400 111.804,132.184 111.600,128.200 111.600 C 125.276 111.600,124.773 111.703,124.414 112.374 M44.000 121.120 C 44.000 124.932,44.229 125.200,47.480 125.200 L 50.000 125.200 50.000 127.720 C 50.000 131.189,50.020 131.200,56.400 131.200 C 62.707 131.200,62.800 131.247,62.800 134.400 C 62.800 137.175,63.209 137.600,65.880 137.600 L 68.000 137.600 68.000 134.000 L 68.000 130.400 65.800 130.400 L 63.600 130.400 63.600 127.614 C 63.600 124.039,63.524 124.000,56.626 124.000 L 51.200 124.000 51.150 121.800 C 51.064 118.001,51.063 118.000,47.176 118.000 L 44.000 118.000 44.000 121.120 M107.200 128.600 L 107.200 131.200 112.520 131.200 C 118.664 131.200,118.800 131.133,118.800 128.120 L 118.800 126.000 113.000 126.000 L 107.200 126.000 107.200 128.600 M57.161 186.923 C 57.340 187.100,58.456 187.188,59.643 187.117 L 61.800 186.989 59.318 186.794 C 57.954 186.687,56.983 186.745,57.161 186.923 M77.107 187.090 C 77.826 187.179,78.906 187.177,79.507 187.086 C 80.108 186.995,79.520 186.922,78.200 186.924 C 76.880 186.926,76.388 187.001,77.107 187.090 " stroke="none" fill="#947e68" fill-rule="evenodd"></path><path id="path10" d="" stroke="none" fill="#ff0000" fill-rule="evenodd"></path><path id="path11" d="M75.884 181.849 C 75.728 182.005,75.600 183.183,75.600 184.467 L 75.600 186.800 78.219 186.800 L 80.838 186.800 80.719 184.300 L 80.600 181.800 78.384 181.683 C 77.165 181.618,76.040 181.693,75.884 181.849 M56.970 182.534 C 56.849 182.850,56.806 183.894,56.875 184.854 L 57.000 186.600 59.521 186.720 L 62.041 186.839 61.921 184.520 L 61.800 182.200 59.495 182.080 C 57.778 181.990,57.134 182.106,56.970 182.534 " stroke="none" fill="#9f9bc9" fill-rule="evenodd"></path></g></svg>