<?xml version="1.0" encoding="iso-8859-1"?>
<!-- Generator: Adobe Illustrator 18.0.0, SVG Export Plug-In . SVG Version: 6.00 Build 0)  -->
<!DOCTYPE svg PUBLIC "-//W3C//DTD SVG 1.1//EN" "http://www.w3.org/Graphics/SVG/1.1/DTD/svg11.dtd">
<svg version="1.1" id="Capa_1" xmlns="http://www.w3.org/2000/svg" xmlns:xlink="http://www.w3.org/1999/xlink" x="0px" y="0px"
	 viewBox="0 0 227.546 227.546" style="enable-background:new 0 0 227.546 227.546;" xml:space="preserve">
<g>
	<path d="M200.284,11.636h-10.879C186.631,4.821,179.945,0,172.145,0c-10.275,0-18.636,8.36-18.636,18.636
		c0,3.18,0.804,6.174,2.214,8.796c0.099,0.511,0.25,1.018,0.469,1.514c6.668,15.045,7.302,32.045,1.931,47.367
		c-14.759-18.26-37.209-29.222-61.037-29.222c-19.704,0-38.464,7.499-52.715,20.418c-4.274-3.495-8.122-7.543-11.478-12.088
		c-2.298-3.11-6.682-3.769-9.79-1.472c-3.11,2.297-3.769,6.68-1.472,9.79c3.881,5.254,8.321,9.955,13.236,14.062
		c-2.063,2.683-3.965,5.514-5.684,8.484c-1.254,2.168-1.254,4.842,0,7.01c2.629,4.545,5.683,8.765,9.095,12.624
		c-2.302,3.116-4.376,6.405-6.204,9.859c-1.809,3.416-0.505,7.652,2.912,9.461c1.044,0.553,2.165,0.815,3.269,0.814
		c2.51,0,4.937-1.354,6.192-3.727c1.234-2.332,2.62-4.563,4.119-6.709c13.275,10.444,29.781,16.528,47.085,16.847v88.082
		c0,3.866,3.134,7,7,7h19.866c0.411,0,0.811-0.042,1.202-0.11c0.391,0.068,0.791,0.11,1.202,0.11h19.866c3.866,0,7-3.134,7-7
		s-3.134-7-7-7h-12.866v-89.268c2.293-1.14,4.529-2.391,6.701-3.748c0.267-0.133,0.531-0.274,0.785-0.444
		c0.818-0.546,1.666-1.138,2.526-1.75c2.33-1.624,4.58-3.368,6.727-5.24c7.626-6.494,15.539-15.311,20.504-26.598
		c6.839-15.545,8.309-32.896,4.467-49.301c7.153-0.57,13.175-5.185,15.771-11.561h10.879c3.866,0,7-3.134,7-7
		S204.151,11.636,200.284,11.636z M150.689,89.79c-2.947,4.412-6.404,8.398-10.263,11.901c-0.177,0.156-0.35,0.314-0.529,0.469
		c-0.073,0.065-0.147,0.128-0.22,0.193c-1.964,1.685-4.051,3.305-6.241,4.849c-10.559,7.217-23.198,11.286-36.35,11.286
		c-14.397,0-28.18-4.874-39.291-13.419c0.801-0.734,1.622-1.453,2.464-2.151c17.64-14.631,41.971-18.776,63.497-10.82
		c3.632,1.338,7.652-0.515,8.993-4.14c1.34-3.627-0.514-7.652-4.14-8.993c-26.197-9.68-55.812-4.632-77.287,13.177
		c-1.255,1.041-2.46,2.127-3.641,3.234c-1.491-1.778-2.897-3.638-4.198-5.586c11.889-17.802,32.064-28.699,53.602-28.699
		S138.799,71.988,150.689,89.79z M117.924,213.546h-8.271v-82.085c2.797-0.458,5.557-1.067,8.271-1.82V213.546z M172.145,23.272
		c-2.557,0-4.636-2.08-4.636-4.637S169.588,14,172.145,14s4.637,2.079,4.637,4.636S174.701,23.272,172.145,23.272z"/>
</g>
<g>
</g>
<g>
</g>
<g>
</g>
<g>
</g>
<g>
</g>
<g>
</g>
<g>
</g>
<g>
</g>
<g>
</g>
<g>
</g>
<g>
</g>
<g>
</g>
<g>
</g>
<g>
</g>
<g>
</g>
</svg>
