<svg id="svg" version="1.1" width="400" height="400" viewBox="0 0 400 400" xmlns="http://www.w3.org/2000/svg" xmlns:xlink="http://www.w3.org/1999/xlink" ><g id="svgg"><path id="path0" d="M107.200 34.400 L 107.200 36.800 109.400 36.800 L 111.600 36.800 111.600 34.400 L 111.600 32.000 109.400 32.000 L 107.200 32.000 107.200 34.400 M174.000 152.200 L 174.000 155.200 167.800 155.200 L 161.600 155.200 161.600 158.400 L 161.600 161.600 158.400 161.600 L 155.200 161.600 155.200 164.800 L 155.200 168.000 152.200 168.000 L 149.200 168.000 149.200 171.000 L 149.200 174.000 146.000 174.000 L 142.800 174.000 142.800 177.200 L 142.800 180.400 139.600 180.400 L 136.400 180.400 136.400 183.400 L 136.400 186.400 133.400 186.400 L 130.400 186.400 130.400 189.600 L 130.400 192.800 128.100 192.799 L 125.800 192.798 125.928 195.699 C 125.999 197.295,125.868 199.095,125.638 199.700 L 125.220 200.800 119.410 200.800 L 113.600 200.800 113.600 206.800 L 113.600 212.800 115.720 212.800 C 118.391 212.800,118.800 212.375,118.800 209.600 C 118.800 206.444,118.889 206.400,125.237 206.400 C 131.726 206.400,131.200 206.947,131.200 200.200 C 131.200 193.880,131.147 194.000,133.966 194.000 C 137.098 194.000,137.547 193.565,137.686 190.400 L 137.800 187.800 140.400 187.686 C 143.565 187.547,144.000 187.098,144.000 183.966 C 144.000 181.141,143.864 181.200,150.353 181.200 C 156.733 181.200,156.400 181.542,156.400 175.000 C 156.400 168.900,156.453 168.800,159.656 168.800 C 162.425 168.800,162.549 168.637,162.435 165.138 L 162.346 162.400 168.124 162.400 C 174.829 162.400,174.706 162.466,174.879 158.785 L 175.000 156.200 187.200 156.000 L 199.400 155.800 199.516 152.500 L 199.632 149.200 186.816 149.200 L 174.000 149.200 174.000 152.200 M213.239 156.460 C 211.553 161.297,212.591 162.400,218.831 162.400 C 224.819 162.400,224.683 162.492,224.865 158.299 L 225.000 155.198 219.339 155.199 L 213.678 155.200 213.239 156.460 M231.535 158.299 C 231.697 162.034,231.953 162.400,234.400 162.400 C 236.847 162.400,237.103 162.034,237.265 158.299 L 237.400 155.198 234.400 155.198 L 231.400 155.198 231.535 158.299 M250.580 163.395 C 250.105 166.564,249.694 166.429,259.490 166.308 L 268.200 166.200 268.405 163.900 L 268.610 161.600 259.729 161.600 L 250.849 161.600 250.580 163.395 M281.600 168.600 C 281.262 169.007,280.356 169.200,278.784 169.200 C 275.772 169.200,275.200 169.449,275.200 170.763 C 275.200 172.156,275.873 172.800,277.327 172.800 C 279.468 172.800,281.531 175.375,281.678 178.231 L 281.800 180.600 284.400 180.600 L 287.000 180.600 287.117 177.934 C 287.194 176.209,287.440 175.098,287.817 174.785 C 288.237 174.437,288.400 173.422,288.400 171.151 L 288.400 168.000 285.249 168.000 C 282.936 168.000,281.966 168.160,281.600 168.600 M299.200 171.000 L 299.200 174.000 296.500 173.999 L 293.800 173.998 294.000 177.299 L 294.200 180.600 296.800 180.600 L 299.400 180.600 299.518 178.134 C 299.680 174.759,299.681 174.759,306.654 174.889 L 312.600 175.000 312.800 177.800 L 313.000 180.600 318.200 180.698 C 321.060 180.751,323.805 180.890,324.300 181.005 L 325.200 181.215 325.200 193.408 L 325.200 205.600 327.971 205.600 C 332.382 205.600,331.999 203.180,332.006 231.129 C 332.009 244.478,332.145 255.608,332.307 255.863 C 332.471 256.121,333.887 256.387,335.502 256.463 L 338.402 256.600 338.401 227.900 L 338.400 199.200 335.400 199.200 L 332.400 199.200 332.400 189.800 L 332.400 180.400 329.200 180.400 L 326.000 180.400 326.000 177.200 L 326.000 174.000 319.800 174.000 L 313.600 174.000 313.600 171.000 L 313.600 168.000 306.400 168.000 L 299.200 168.000 299.200 171.000 M288.212 182.100 C 288.123 182.375,287.987 184.991,287.910 187.914 C 287.750 193.962,287.456 193.501,291.600 193.696 L 293.800 193.800 293.800 199.600 C 293.800 206.588,293.705 206.400,297.224 206.400 L 300.000 206.400 300.000 212.200 L 300.000 218.000 302.800 218.000 L 305.600 218.000 305.600 212.218 L 305.600 206.437 302.900 206.318 L 300.200 206.200 300.000 197.000 L 299.800 187.800 297.406 187.677 C 294.399 187.523,293.600 186.871,293.600 184.571 C 293.600 181.793,293.415 181.600,290.745 181.600 C 289.202 181.600,288.318 181.775,288.212 182.100 M162.814 200.774 C 162.162 201.992,162.264 217.789,162.927 218.340 C 163.240 218.599,165.804 218.822,169.227 218.889 L 175.000 219.000 175.200 222.000 L 175.400 225.000 187.700 225.106 L 200.000 225.212 200.000 227.806 L 200.000 230.400 215.420 230.400 L 230.840 230.400 230.720 228.100 L 230.600 225.800 215.781 225.574 C 198.885 225.316,200.000 225.550,200.000 222.256 C 200.000 218.611,200.703 218.800,187.120 218.800 L 175.200 218.800 175.200 213.080 C 175.200 206.464,175.169 206.400,172.000 206.400 C 169.204 206.400,168.800 205.996,168.800 203.200 C 168.800 200.393,168.399 200.000,165.534 200.000 C 163.664 200.000,163.150 200.146,162.814 200.774 M107.200 216.600 L 107.200 219.600 109.400 219.600 L 111.600 219.600 111.600 222.800 L 111.600 226.000 117.783 226.000 L 123.966 226.000 124.083 229.100 L 124.200 232.200 127.300 232.317 L 130.400 232.434 130.400 235.417 L 130.400 238.400 133.400 238.400 L 136.400 238.400 136.400 241.600 L 136.400 244.800 142.800 244.800 L 149.200 244.800 149.200 248.000 L 149.200 251.200 167.751 251.200 L 186.302 251.200 186.903 250.300 C 187.495 249.411,187.616 249.400,196.451 249.400 L 205.400 249.400 205.518 247.154 L 205.637 244.908 202.537 244.709 C 200.743 244.594,199.373 244.318,199.285 244.055 C 199.174 243.722,192.616 243.600,174.774 243.600 L 150.415 243.600 150.212 242.700 C 150.100 242.205,149.962 240.900,149.905 239.800 L 149.800 237.800 147.414 237.677 C 144.401 237.523,144.000 237.176,144.000 234.725 C 144.000 231.212,143.978 231.200,137.635 231.200 C 131.242 231.200,131.299 231.230,131.123 227.786 L 131.000 225.400 129.000 225.295 C 125.183 225.096,125.200 225.109,125.200 222.241 C 125.200 218.864,125.163 218.844,118.573 218.712 L 113.000 218.600 112.881 216.100 L 112.762 213.600 109.981 213.600 L 107.200 213.600 107.200 216.600 M294.080 219.280 C 293.816 219.544,293.600 220.782,293.600 222.031 C 293.600 224.805,293.270 225.119,290.186 225.277 L 287.800 225.400 287.688 230.973 C 287.545 238.131,288.276 237.525,278.916 238.241 L 276.033 238.462 275.916 241.531 L 275.800 244.600 260.082 244.705 C 244.251 244.810,242.800 244.699,242.800 243.386 C 242.800 242.250,232.559 242.555,232.252 243.700 C 231.940 244.863,231.940 249.137,232.252 250.300 L 232.493 251.200 254.247 251.200 L 276.000 251.200 276.000 248.000 L 276.000 244.800 281.900 244.800 L 287.800 244.800 287.661 242.792 C 287.498 240.447,289.719 237.600,291.710 237.600 C 292.963 237.600,293.200 236.992,293.200 233.781 C 293.200 230.745,293.585 230.400,296.974 230.400 L 299.200 230.400 299.200 224.600 L 299.200 218.800 296.880 218.800 C 295.604 218.800,294.344 219.016,294.080 219.280 M313.600 266.600 L 313.600 269.600 315.800 269.600 L 318.000 269.600 318.000 272.800 L 318.000 276.000 321.700 276.001 L 325.400 276.002 325.270 272.801 L 325.139 269.600 321.570 269.600 L 318.000 269.600 318.000 266.600 L 318.000 263.600 315.800 263.600 L 313.600 263.600 313.600 266.600 M337.200 282.000 L 336.200 282.320 337.300 282.360 C 337.905 282.382,338.400 282.220,338.400 282.000 C 338.400 281.780,338.355 281.618,338.300 281.640 C 338.245 281.662,337.750 281.824,337.200 282.000 " stroke="none" fill="#000000" fill-rule="evenodd"></path><path id="path1" d="M244.564 194.951 C 244.447 195.254,244.408 196.379,244.476 197.451 L 244.600 199.400 246.900 199.520 L 249.200 199.640 249.200 197.020 L 249.200 194.400 246.987 194.400 C 245.478 194.400,244.708 194.575,244.564 194.951 M250.800 203.189 L 250.800 205.600 253.124 205.600 C 256.300 205.600,256.746 206.027,256.886 209.200 L 257.000 211.800 259.715 212.000 C 263.291 212.263,263.187 211.961,263.194 222.051 C 263.201 232.037,263.336 231.681,259.439 232.000 L 257.000 232.200 256.877 234.586 C 256.701 238.016,256.732 238.000,250.601 238.000 C 242.844 238.000,242.800 238.015,242.800 240.650 L 242.800 242.800 258.600 242.800 L 274.400 242.800 274.400 240.249 C 274.400 237.136,274.663 236.879,278.015 236.721 L 280.600 236.600 280.600 234.400 L 280.600 232.200 277.934 232.083 C 274.307 231.923,274.432 232.264,274.308 222.169 L 274.200 213.400 271.600 213.286 C 268.427 213.146,268.000 212.700,268.000 209.524 L 268.000 207.200 265.676 207.200 C 262.500 207.200,262.054 206.773,261.914 203.600 L 261.800 201.000 256.300 200.889 L 250.800 200.777 250.800 203.189 M325.867 238.267 C 325.720 238.413,325.600 239.505,325.600 240.693 C 325.600 244.018,325.249 244.400,322.186 244.400 L 319.600 244.400 319.600 249.826 C 319.600 257.239,320.016 256.800,312.986 256.800 L 307.200 256.800 307.200 262.400 L 307.200 268.000 309.353 268.000 L 311.507 268.000 311.672 265.401 C 311.875 262.223,312.178 261.894,315.094 261.691 C 319.035 261.416,319.600 261.855,319.600 265.190 L 319.600 268.000 325.264 268.000 L 330.927 268.000 330.665 259.300 C 330.520 254.515,330.402 247.765,330.401 244.300 L 330.400 238.000 328.267 238.000 C 327.093 238.000,326.013 238.120,325.867 238.267 " stroke="none" fill="#ffffff" fill-rule="evenodd"></path><path id="path2" d="M106.965 32.148 C 106.849 32.449,106.810 33.664,106.877 34.848 L 107.000 37.000 109.132 37.122 C 110.361 37.192,111.506 37.044,111.832 36.773 C 112.533 36.192,112.597 32.757,111.920 32.080 C 111.236 31.396,107.232 31.451,106.965 32.148 M111.600 34.400 L 111.600 36.800 109.400 36.800 L 107.200 36.800 107.200 34.400 L 107.200 32.000 109.400 32.000 L 111.600 32.000 111.600 34.400 M199.516 152.500 L 199.400 155.800 187.200 156.000 L 175.000 156.200 174.879 158.785 C 174.706 162.466,174.829 162.400,168.124 162.400 L 162.346 162.400 162.435 165.138 C 162.549 168.637,162.425 168.800,159.656 168.800 C 156.453 168.800,156.400 168.900,156.400 175.000 C 156.400 181.542,156.733 181.200,150.353 181.200 C 143.864 181.200,144.000 181.141,144.000 183.966 C 144.000 187.098,143.565 187.547,140.400 187.686 L 137.800 187.800 137.686 190.400 C 137.547 193.565,137.098 194.000,133.966 194.000 C 131.147 194.000,131.200 193.880,131.200 200.200 C 131.200 206.947,131.726 206.400,125.237 206.400 C 118.889 206.400,118.800 206.444,118.800 209.600 C 118.800 212.375,118.391 212.800,115.720 212.800 L 113.600 212.800 113.600 206.800 L 113.600 200.800 119.410 200.800 L 125.220 200.800 125.610 199.774 C 126.121 198.429,126.114 193.318,125.600 193.000 C 125.345 192.842,125.200 194.048,125.200 196.334 C 125.200 200.652,125.595 200.400,118.816 200.400 C 112.495 200.400,112.852 200.012,112.712 207.027 L 112.600 212.600 109.800 212.800 L 107.000 213.000 106.972 216.400 L 106.943 219.800 107.088 216.700 L 107.234 213.600 109.998 213.600 L 112.762 213.600 112.881 216.100 L 113.000 218.600 118.573 218.712 C 125.163 218.844,125.200 218.864,125.200 222.241 C 125.200 225.109,125.183 225.096,129.000 225.295 L 131.000 225.400 131.123 227.786 C 131.299 231.230,131.242 231.200,137.635 231.200 C 143.978 231.200,144.000 231.212,144.000 234.725 C 144.000 237.176,144.401 237.523,147.414 237.677 L 149.800 237.800 149.905 239.800 C 149.962 240.900,150.100 242.205,150.212 242.700 L 150.415 243.600 174.774 243.600 C 192.616 243.600,199.174 243.722,199.285 244.055 C 199.373 244.318,200.743 244.594,202.537 244.709 L 205.637 244.908 205.518 247.154 L 205.400 249.400 197.595 249.247 C 189.053 249.081,187.407 249.265,186.767 250.461 C 186.352 251.236,186.368 251.239,187.396 250.566 C 188.346 249.943,189.296 249.901,196.982 250.140 C 206.646 250.440,206.000 250.662,206.000 247.047 C 206.000 244.410,205.569 244.000,202.800 244.000 C 199.631 244.000,199.600 243.935,199.600 237.334 C 199.600 230.092,197.801 230.800,216.192 230.800 L 231.237 230.800 231.118 228.100 L 231.000 225.400 219.732 225.152 C 205.631 224.841,206.400 225.018,206.400 222.072 C 206.400 219.200,206.009 218.800,203.200 218.800 C 200.398 218.800,200.000 218.398,200.000 215.569 C 200.000 212.795,199.670 212.481,196.586 212.323 L 194.200 212.200 194.200 209.400 L 194.200 206.600 196.586 206.477 C 199.670 206.319,200.000 206.005,200.000 203.231 C 200.000 200.402,200.398 200.000,203.200 200.000 C 205.957 200.000,206.402 199.585,206.394 197.020 C 206.384 193.687,206.777 193.826,196.715 193.600 L 187.800 193.400 187.800 190.600 L 187.800 187.800 212.200 187.585 C 239.286 187.347,237.600 187.160,237.600 190.400 C 237.600 193.655,237.702 193.701,244.159 193.366 C 250.738 193.025,250.800 193.055,250.800 196.649 L 250.800 199.200 256.324 199.200 C 263.036 199.200,263.130 199.249,263.286 202.800 L 263.400 205.400 266.115 205.600 C 269.352 205.838,269.586 206.100,269.594 209.500 L 269.600 212.000 272.357 212.000 C 275.818 212.000,275.600 211.338,275.600 221.833 L 275.600 230.400 278.171 230.400 C 281.526 230.400,282.002 230.864,281.994 234.129 C 281.986 237.498,281.748 237.762,278.515 238.000 L 275.800 238.200 275.600 240.800 C 275.490 242.230,275.254 243.625,275.076 243.900 C 274.540 244.728,244.881 244.612,243.689 243.777 C 243.200 243.435,242.800 243.339,242.800 243.563 C 242.800 244.678,244.743 244.807,260.082 244.705 L 275.800 244.600 275.916 241.531 L 276.033 238.462 278.916 238.241 C 288.276 237.525,287.545 238.131,287.688 230.973 L 287.800 225.400 290.186 225.277 C 293.270 225.119,293.600 224.805,293.600 222.031 C 293.600 219.189,293.995 218.800,296.880 218.800 L 299.200 218.800 299.200 224.600 L 299.200 230.400 296.974 230.400 C 293.585 230.400,293.200 230.745,293.200 233.781 C 293.200 236.992,292.963 237.600,291.710 237.600 C 289.770 237.600,287.533 240.415,287.677 242.676 L 287.800 244.600 293.494 244.711 L 299.188 244.822 299.294 257.111 L 299.400 269.400 302.300 269.518 L 305.200 269.635 305.247 271.718 C 305.273 272.863,305.408 274.277,305.547 274.860 L 305.800 275.920 309.600 275.860 L 313.400 275.800 313.510 269.700 L 313.621 263.600 315.810 263.600 L 318.000 263.600 318.000 266.600 L 318.000 269.600 321.500 269.527 L 325.000 269.453 321.800 269.227 L 318.600 269.000 318.400 266.200 L 318.200 263.400 315.700 263.281 L 313.200 263.162 313.194 265.881 C 313.185 269.626,313.152 269.656,309.166 269.517 L 305.800 269.400 305.952 253.992 C 306.132 235.775,306.863 237.664,299.574 237.512 L 294.200 237.400 294.080 234.865 C 293.927 231.639,294.252 231.266,297.334 231.118 L 299.800 231.000 300.200 225.200 L 300.600 219.400 303.268 219.200 C 306.733 218.940,306.569 219.252,306.800 212.468 L 307.000 206.600 309.515 206.400 C 312.494 206.163,312.785 205.837,312.794 202.743 C 312.801 200.171,312.998 200.000,315.953 200.000 C 318.386 200.000,318.800 200.470,318.800 203.231 C 318.800 206.225,318.883 206.268,325.261 206.604 L 330.721 206.892 330.950 212.546 C 331.075 215.656,331.273 225.040,331.390 233.400 C 331.507 241.760,331.719 253.015,331.862 258.411 C 332.169 270.076,332.335 269.600,327.955 269.600 L 325.166 269.600 325.283 272.700 L 325.400 275.800 327.900 275.919 L 330.400 276.038 330.447 278.719 C 330.473 280.194,330.478 281.523,330.457 281.672 C 330.388 282.162,334.823 282.509,336.532 282.148 L 338.200 281.796 338.200 269.198 L 338.200 256.600 335.411 256.480 C 333.804 256.410,332.493 256.156,332.317 255.880 C 332.149 255.616,332.009 244.478,332.006 231.129 C 331.999 203.180,332.382 205.600,327.971 205.600 L 325.200 205.600 325.200 193.408 L 325.200 181.215 324.300 181.005 C 323.805 180.890,321.060 180.751,318.200 180.698 L 313.000 180.600 312.800 177.800 L 312.600 175.000 306.654 174.889 C 299.681 174.759,299.680 174.759,299.518 178.134 L 299.400 180.600 296.800 180.600 L 294.200 180.600 294.000 177.400 L 293.800 174.200 291.177 174.083 C 287.802 173.934,287.289 174.430,287.121 178.008 L 287.000 180.600 284.400 180.600 L 281.800 180.600 281.678 178.231 C 281.531 175.375,279.468 172.800,277.327 172.800 C 275.873 172.800,275.200 172.156,275.200 170.763 C 275.200 169.451,275.772 169.200,278.771 169.200 C 281.995 169.200,282.473 168.599,282.318 164.748 L 282.200 161.800 275.400 161.800 L 268.600 161.800 268.400 164.000 L 268.200 166.200 259.400 166.200 L 250.600 166.200 250.675 164.600 C 250.716 163.720,250.871 161.464,251.020 159.587 C 251.384 155.008,251.628 155.153,243.746 155.290 L 237.400 155.400 237.281 158.382 C 237.136 161.995,236.846 162.400,234.400 162.400 C 231.954 162.400,231.664 161.995,231.519 158.382 L 231.400 155.400 228.200 155.400 L 225.000 155.400 224.881 158.382 C 224.718 162.468,224.821 162.400,218.800 162.400 C 212.731 162.400,212.609 162.327,212.967 158.913 C 213.100 157.641,213.314 154.935,213.443 152.900 L 213.677 149.200 206.655 149.200 L 199.632 149.200 199.516 152.500 M293.357 182.233 C 293.491 182.581,293.600 183.633,293.600 184.571 C 293.600 186.871,294.399 187.523,297.406 187.677 L 299.800 187.800 300.000 197.000 L 300.200 206.200 302.900 206.318 L 305.600 206.437 305.600 212.218 L 305.600 218.000 302.800 218.000 L 300.000 218.000 300.000 212.200 L 300.000 206.400 297.224 206.400 C 293.705 206.400,293.800 206.588,293.800 199.600 L 293.800 193.800 291.600 193.696 C 287.456 193.501,287.750 193.962,287.910 187.914 C 287.987 184.991,288.123 182.375,288.212 182.100 C 288.469 181.309,293.048 181.427,293.357 182.233 M168.320 200.480 C 168.584 200.744,168.800 201.968,168.800 203.200 C 168.800 205.996,169.204 206.400,172.000 206.400 C 175.169 206.400,175.200 206.464,175.200 213.080 L 175.200 218.800 187.120 218.800 C 200.703 218.800,200.000 218.611,200.000 222.256 C 200.000 225.550,198.885 225.316,215.781 225.574 L 230.600 225.800 230.720 228.100 L 230.840 230.400 215.420 230.400 L 200.000 230.400 200.000 227.806 L 200.000 225.212 187.700 225.106 L 175.400 225.000 175.200 222.000 L 175.000 219.000 169.227 218.889 C 165.804 218.822,163.240 218.599,162.927 218.340 C 162.264 217.789,162.162 201.992,162.814 200.774 C 163.300 199.866,167.483 199.643,168.320 200.480 M231.856 243.684 C 231.721 244.188,231.636 245.770,231.667 247.200 C 231.724 249.800,231.724 249.800,231.998 246.400 C 232.288 242.804,232.256 242.193,231.856 243.684 " stroke="none" fill="#222034" fill-rule="evenodd"></path><path id="path3" d="M113.149 200.700 C 112.665 201.317,112.675 201.342,113.226 200.912 C 113.627 200.600,115.787 200.379,119.226 200.299 L 124.600 200.175 119.149 200.087 C 114.369 200.011,113.630 200.086,113.149 200.700 M106.537 216.600 C 106.539 218.360,106.609 219.030,106.693 218.089 C 106.778 217.149,106.777 215.709,106.691 214.889 C 106.605 214.070,106.536 214.840,106.537 216.600 M202.311 231.093 C 203.251 231.178,204.691 231.177,205.511 231.091 C 206.330 231.005,205.560 230.936,203.800 230.937 C 202.040 230.939,201.370 231.009,202.311 231.093 M225.900 231.093 C 226.835 231.177,228.365 231.177,229.300 231.093 C 230.235 231.009,229.470 230.940,227.600 230.940 C 225.730 230.940,224.965 231.009,225.900 231.093 M205.476 244.412 C 205.738 244.749,206.020 246.009,206.102 247.212 L 206.252 249.400 206.326 247.149 C 206.383 245.420,206.238 244.771,205.700 244.349 C 205.087 243.868,205.059 243.876,205.476 244.412 M231.324 247.000 C 231.326 248.320,231.401 248.812,231.490 248.093 C 231.579 247.374,231.577 246.294,231.486 245.693 C 231.395 245.092,231.322 245.680,231.324 247.000 M187.736 250.306 C 187.481 250.468,189.461 250.551,192.136 250.491 C 199.606 250.324,200.422 250.141,194.000 250.073 C 190.810 250.040,187.991 250.144,187.736 250.306 M201.300 250.691 C 202.125 250.778,203.475 250.778,204.300 250.691 C 205.125 250.605,204.450 250.534,202.800 250.534 C 201.150 250.534,200.475 250.605,201.300 250.691 " stroke="none" fill="#993333" fill-rule="evenodd"></path><path id="path4" d="M74.057 33.297 C 73.915 36.765,74.366 36.315,70.884 36.458 L 67.974 36.576 68.087 40.588 L 68.200 44.600 77.350 44.708 C 84.288 44.789,86.646 44.693,87.106 44.308 C 87.478 43.996,89.974 43.645,93.556 43.400 L 99.400 43.000 99.400 40.600 L 99.400 38.200 94.018 38.088 C 87.252 37.947,87.200 37.912,87.200 33.538 L 87.200 30.400 80.688 30.400 L 74.175 30.400 74.057 33.297 M106.700 31.232 C 106.140 31.558,106.000 32.193,106.000 34.406 C 106.000 37.675,106.338 38.000,109.745 38.000 C 112.655 38.000,113.200 37.432,113.200 34.400 C 113.200 31.343,112.662 30.796,109.671 30.812 C 108.422 30.819,107.085 31.008,106.700 31.232 M112.200 34.400 L 112.200 37.000 109.600 37.000 L 107.000 37.000 106.877 34.848 C 106.695 31.651,106.792 31.543,109.695 31.681 L 112.200 31.800 112.200 34.400 M209.600 187.595 L 187.800 187.800 187.800 190.600 L 187.800 193.400 196.715 193.600 C 206.777 193.826,206.384 193.687,206.394 197.020 C 206.402 199.585,205.957 200.000,203.200 200.000 C 200.398 200.000,200.000 200.402,200.000 203.231 C 200.000 206.005,199.670 206.319,196.586 206.477 L 194.200 206.600 194.200 209.400 L 194.200 212.200 196.586 212.323 C 199.670 212.481,200.000 212.795,200.000 215.569 C 200.000 218.398,200.398 218.800,203.200 218.800 C 206.009 218.800,206.400 219.200,206.400 222.072 C 206.400 225.018,205.631 224.841,219.732 225.152 L 231.000 225.400 231.000 228.185 L 231.000 230.970 215.961 230.985 C 197.794 231.003,199.600 230.269,199.600 237.635 C 199.600 244.013,199.592 244.000,203.294 244.000 C 206.327 244.000,207.451 246.455,205.939 249.774 L 205.478 250.786 197.039 250.548 C 186.139 250.239,186.308 250.181,186.458 254.200 L 186.569 257.200 189.685 257.200 L 192.800 257.200 192.847 263.100 C 192.873 266.345,192.873 269.135,192.847 269.300 C 192.821 269.465,194.240 269.600,196.000 269.600 L 199.200 269.600 199.200 315.583 L 199.200 361.566 196.100 361.683 L 193.000 361.800 192.883 364.900 L 192.766 368.000 189.630 368.000 L 186.494 368.000 186.547 371.900 L 186.600 375.800 196.484 375.917 L 206.367 376.035 206.484 372.717 L 206.600 369.400 209.281 369.200 C 212.591 368.953,212.729 368.815,212.879 365.600 L 213.000 363.000 215.466 362.882 C 216.828 362.816,218.120 362.537,218.352 362.257 C 218.915 361.579,219.189 269.749,218.630 269.190 C 218.415 268.975,217.232 268.800,216.000 268.800 C 212.858 268.800,212.800 268.688,212.800 262.582 C 212.800 256.303,212.630 256.000,209.111 256.000 C 206.300 256.000,206.317 256.046,206.650 249.407 C 206.958 243.277,207.081 243.499,203.200 243.200 L 200.600 243.000 200.600 237.600 L 200.600 232.200 204.200 231.870 C 207.915 231.530,228.918 231.804,233.700 232.255 L 236.400 232.510 236.400 235.455 L 236.400 238.400 239.504 238.400 C 242.174 238.400,242.677 238.288,243.107 237.600 C 243.571 236.858,244.040 236.800,249.603 236.800 L 255.600 236.800 255.600 234.014 C 255.600 230.718,255.932 230.400,259.374 230.400 L 261.600 230.400 261.600 222.000 L 261.600 213.600 259.626 213.600 C 255.989 213.600,255.600 213.253,255.600 210.010 L 255.600 207.200 253.029 207.200 C 251.224 207.200,250.270 207.012,249.829 206.571 C 249.388 206.130,249.200 205.176,249.200 203.371 L 249.200 200.800 246.390 200.800 C 243.148 200.800,242.800 200.410,242.800 196.784 C 242.800 194.417,243.911 193.600,247.131 193.600 C 249.604 193.600,249.928 193.997,250.079 197.215 L 250.200 199.800 256.116 200.000 C 262.892 200.229,262.784 200.170,262.794 203.692 C 262.801 206.274,262.834 206.299,266.600 206.495 L 268.600 206.600 268.705 208.600 C 268.901 212.366,268.926 212.399,271.508 212.406 C 275.152 212.416,274.973 211.944,275.200 222.085 L 275.400 231.000 277.786 231.123 C 280.876 231.281,281.200 231.592,281.200 234.400 C 281.200 237.208,280.876 237.519,277.786 237.677 L 275.400 237.800 275.277 240.186 C 275.210 241.499,274.963 242.804,274.728 243.086 C 274.175 243.754,244.842 243.839,243.474 243.177 C 242.652 242.780,242.656 242.804,243.544 243.577 C 244.462 244.376,244.923 244.400,259.621 244.400 C 276.702 244.400,275.299 244.716,275.600 240.800 L 275.800 238.200 278.515 238.000 C 281.748 237.762,281.986 237.498,281.994 234.129 C 282.002 230.864,281.526 230.400,278.171 230.400 L 275.600 230.400 275.600 221.833 C 275.600 211.338,275.818 212.000,272.357 212.000 L 269.600 212.000 269.594 209.500 C 269.586 206.100,269.352 205.838,266.115 205.600 L 263.400 205.400 263.286 202.800 C 263.130 199.249,263.036 199.200,256.324 199.200 L 250.800 199.200 250.800 196.649 C 250.800 193.055,250.738 193.025,244.159 193.366 C 237.711 193.700,237.600 193.650,237.600 190.431 C 237.600 187.493,237.241 187.178,234.020 187.295 C 232.579 187.347,221.590 187.482,209.600 187.595 M124.316 196.100 L 124.200 199.400 118.616 199.512 C 111.926 199.646,112.414 199.135,112.406 206.020 C 112.399 212.356,112.375 212.400,109.000 212.400 C 107.636 212.400,106.348 212.612,106.080 212.880 C 105.489 213.471,105.416 219.600,106.000 219.600 C 106.231 219.600,106.400 218.350,106.400 216.649 C 106.400 213.093,106.594 212.882,110.015 212.721 L 112.600 212.600 112.711 206.827 C 112.851 199.581,112.405 200.046,119.340 199.911 L 125.000 199.800 125.116 196.300 C 125.186 194.160,125.076 192.800,124.832 192.800 C 124.608 192.800,124.381 194.248,124.316 196.100 M313.300 200.265 C 312.984 200.393,312.798 201.299,312.794 202.733 C 312.785 205.838,312.495 206.162,309.515 206.400 L 307.000 206.600 306.800 212.468 C 306.569 219.252,306.733 218.940,303.268 219.200 L 300.600 219.400 300.200 225.200 L 299.800 231.000 297.334 231.118 C 294.252 231.266,293.927 231.639,294.080 234.865 L 294.200 237.400 299.574 237.512 C 306.863 237.664,306.132 235.775,305.952 253.992 L 305.800 269.400 309.166 269.517 C 313.152 269.656,313.185 269.626,313.194 265.881 L 313.200 263.162 315.700 263.281 L 318.200 263.400 318.400 266.200 L 318.600 269.000 324.109 269.341 C 330.088 269.711,331.371 269.573,331.777 268.516 C 332.037 267.839,331.379 223.690,330.943 212.546 L 330.721 206.892 325.261 206.604 C 318.883 206.268,318.800 206.225,318.800 203.231 C 318.800 201.982,318.584 200.744,318.320 200.480 C 317.853 200.013,314.302 199.861,313.300 200.265 M330.791 237.583 C 331.067 238.099,331.174 243.516,331.105 253.483 L 331.000 268.600 325.455 268.712 C 318.908 268.843,318.800 268.793,318.800 265.631 C 318.800 262.841,318.391 262.398,315.820 262.406 C 312.938 262.415,312.633 262.725,312.400 265.885 L 312.200 268.600 309.400 268.600 L 306.600 268.600 306.489 262.894 C 306.339 255.167,305.975 255.600,312.614 255.600 L 318.000 255.600 318.000 249.823 C 318.000 243.012,318.123 242.800,322.089 242.800 L 324.400 242.800 324.400 240.280 C 324.400 237.131,324.730 236.800,327.866 236.800 C 329.944 236.800,330.443 236.934,330.791 237.583 M231.273 243.287 C 230.405 244.155,230.654 250.294,231.577 250.788 C 232.315 251.183,232.326 251.148,231.780 250.102 C 231.109 248.816,231.021 245.723,231.611 244.171 C 232.083 242.931,231.957 242.603,231.273 243.287 " stroke="none" fill="#696a6a" fill-rule="evenodd"></path><path id="path5" d="" stroke="none" fill="#ff0000" fill-rule="evenodd"></path><path id="path6" d="" stroke="none" fill="#ff5555" fill-rule="evenodd"></path><path id="path7" d="M105.443 12.233 C 105.309 12.581,105.200 14.021,105.200 15.433 L 105.200 18.000 102.200 18.000 L 99.200 18.000 99.200 21.000 L 99.200 24.000 96.633 24.000 C 92.807 24.000,92.800 24.007,92.800 27.443 L 92.800 30.400 90.000 30.400 L 87.200 30.400 87.200 33.538 C 87.200 37.912,87.252 37.947,94.018 38.088 L 99.400 38.200 99.400 40.600 L 99.400 43.000 93.556 43.400 C 86.309 43.896,86.329 43.883,86.484 47.962 L 86.600 51.000 89.700 51.117 L 92.800 51.234 92.800 54.217 L 92.800 57.200 96.000 57.200 L 99.200 57.200 99.200 62.600 L 99.200 68.000 96.000 68.000 L 92.800 68.000 92.800 77.183 L 92.800 86.366 89.700 86.483 L 86.600 86.600 86.495 102.300 L 86.391 118.000 83.395 118.000 L 80.400 118.000 80.400 130.400 L 80.400 142.800 77.443 142.800 C 75.115 142.800,74.434 142.935,74.243 143.433 C 73.926 144.259,73.926 193.341,74.243 194.167 C 74.434 194.665,75.115 194.800,77.443 194.800 L 80.400 194.800 80.400 201.000 L 80.400 207.200 83.400 207.200 L 86.400 207.200 86.400 209.767 C 86.400 213.833,85.996 213.600,93.043 213.600 L 99.200 213.600 99.200 216.600 L 99.200 219.600 102.400 219.600 L 105.600 219.600 105.600 216.480 C 105.600 212.685,105.838 212.400,109.000 212.400 C 112.375 212.400,112.399 212.356,112.406 206.020 C 112.414 199.135,111.926 199.646,118.616 199.512 L 124.200 199.400 124.316 196.100 L 124.432 192.800 122.016 192.800 L 119.600 192.800 119.600 189.600 L 119.600 186.400 116.600 186.400 L 113.600 186.400 113.600 183.400 L 113.600 180.400 110.400 180.400 L 107.200 180.400 107.200 162.600 L 107.200 144.800 110.400 144.800 L 113.600 144.800 113.600 132.200 L 113.600 119.600 116.600 119.600 L 119.600 119.600 119.600 104.000 L 119.600 88.400 122.800 88.400 L 126.000 88.400 126.000 79.000 L 126.000 69.600 129.200 69.600 L 132.400 69.600 132.400 60.418 L 132.400 51.235 135.300 51.118 L 138.200 51.000 138.200 37.600 L 138.200 24.200 135.317 24.083 L 132.434 23.966 132.317 21.083 L 132.200 18.200 129.100 18.083 L 126.000 17.966 126.000 14.783 L 126.000 11.600 115.843 11.600 C 106.950 11.600,105.655 11.679,105.443 12.233 M124.730 19.315 C 124.965 19.599,125.212 20.994,125.279 22.415 L 125.400 25.000 128.200 25.200 L 131.000 25.400 131.000 37.600 L 131.000 49.800 128.200 50.000 L 125.400 50.200 125.292 58.969 C 125.168 69.000,125.235 68.800,122.031 68.800 C 118.720 68.800,118.800 68.566,118.800 78.200 C 118.800 87.834,118.880 87.600,115.569 87.600 C 112.252 87.600,112.423 86.756,112.305 103.635 L 112.200 118.600 109.814 118.723 C 106.197 118.908,106.400 118.177,106.400 131.016 C 106.400 144.361,106.561 143.600,103.731 143.600 C 99.635 143.600,100.000 141.452,100.000 165.534 C 100.000 189.207,99.767 187.600,103.200 187.600 C 106.002 187.600,106.400 188.002,106.400 190.831 C 106.400 193.605,106.730 193.919,109.814 194.077 L 112.200 194.200 112.099 197.000 C 112.043 198.540,111.895 202.455,111.770 205.700 L 111.542 211.600 108.971 211.600 L 106.400 211.600 106.400 209.480 C 106.400 206.340,106.584 206.400,97.000 206.400 C 86.788 206.400,87.600 206.935,87.600 200.200 C 87.600 194.004,87.598 194.000,83.963 194.000 C 80.492 194.000,80.800 196.453,80.800 168.800 C 80.800 141.384,80.553 143.600,83.610 143.600 C 87.519 143.600,87.200 144.705,87.200 131.181 C 87.200 117.680,86.913 118.699,90.800 118.400 L 93.400 118.200 93.600 102.800 L 93.800 87.400 96.800 87.200 L 99.800 87.000 99.908 78.431 C 100.032 68.621,99.971 68.800,103.169 68.800 C 106.345 68.800,106.400 68.694,106.400 62.600 C 106.400 56.514,106.341 56.400,103.200 56.400 C 100.398 56.400,100.000 55.998,100.000 53.169 C 100.000 50.395,99.670 50.081,96.586 49.923 L 94.200 49.800 94.200 47.200 L 94.200 44.600 97.000 44.487 C 100.423 44.348,100.800 43.958,100.800 40.552 C 100.800 37.219,100.351 36.800,96.771 36.800 L 94.000 36.800 94.000 34.208 C 94.000 31.284,93.975 31.304,97.800 31.105 L 99.800 31.000 99.905 29.000 C 100.104 25.189,100.095 25.200,102.928 25.200 C 106.017 25.200,106.400 24.847,106.400 22.000 C 106.400 20.768,106.616 19.544,106.880 19.280 C 107.590 18.570,124.138 18.602,124.730 19.315 M105.781 30.905 C 105.663 31.214,105.618 32.982,105.683 34.833 L 105.800 38.200 109.400 38.124 C 118.099 37.941,118.800 37.664,118.800 34.400 C 118.800 31.627,118.528 31.357,115.400 31.022 C 109.318 30.371,106.002 30.330,105.781 30.905 M112.571 31.429 C 113.000 31.857,113.200 32.803,113.200 34.400 C 113.200 37.432,112.655 38.000,109.745 38.000 C 106.338 38.000,106.000 37.675,106.000 34.406 C 106.000 31.121,106.297 30.830,109.671 30.812 C 111.216 30.804,112.144 31.001,112.571 31.429 M243.900 194.229 C 242.931 194.755,242.800 195.059,242.800 196.787 C 242.800 200.410,243.149 200.800,246.390 200.800 L 249.200 200.800 249.200 203.371 C 249.200 206.747,249.653 207.200,253.029 207.200 L 255.600 207.200 255.600 210.010 C 255.600 213.253,255.989 213.600,259.626 213.600 L 261.600 213.600 261.600 222.000 L 261.600 230.400 259.374 230.400 C 255.932 230.400,255.600 230.718,255.600 234.014 L 255.600 236.800 249.680 236.800 C 245.609 236.800,243.610 236.950,243.280 237.280 C 242.553 238.007,242.706 238.576,243.460 237.949 C 243.925 237.562,245.846 237.341,249.960 237.200 L 255.800 237.000 255.923 234.614 C 256.081 231.524,256.392 231.200,259.200 231.200 C 262.503 231.200,262.433 231.418,262.308 221.549 L 262.200 213.000 259.600 212.886 C 256.429 212.747,256.000 212.300,256.000 209.131 C 256.000 206.522,255.973 206.502,252.200 206.305 L 250.200 206.200 250.082 203.300 L 249.965 200.400 255.882 200.317 L 261.800 200.234 256.000 200.017 L 250.200 199.800 250.079 197.215 C 250.012 195.794,249.765 194.399,249.530 194.115 C 248.945 193.411,245.271 193.485,243.900 194.229 M249.400 197.200 L 249.400 200.200 247.312 200.320 C 244.143 200.503,243.600 200.048,243.600 197.206 C 243.600 194.346,244.044 193.963,247.200 194.103 L 249.400 194.200 249.400 197.200 M262.319 203.108 C 262.508 206.384,262.932 206.800,266.076 206.800 L 268.400 206.800 268.400 209.124 C 268.400 212.268,268.816 212.692,272.092 212.881 C 273.572 212.967,274.562 212.896,274.292 212.725 C 274.021 212.553,272.768 212.409,271.508 212.406 C 268.926 212.399,268.901 212.366,268.705 208.600 L 268.600 206.600 266.600 206.495 C 262.834 206.299,262.801 206.274,262.794 203.692 C 262.791 202.432,262.647 201.179,262.475 200.908 C 262.304 200.638,262.233 201.628,262.319 203.108 M274.888 222.020 C 274.787 231.945,274.678 231.631,278.180 231.531 L 280.600 231.462 278.000 231.231 L 275.400 231.000 275.188 222.200 L 274.976 213.400 274.888 222.020 M203.200 231.969 L 200.600 232.200 200.600 237.600 L 200.600 243.000 203.200 243.200 C 207.081 243.499,206.958 243.277,206.650 249.407 C 206.316 256.068,206.290 256.000,209.181 256.000 C 212.622 256.000,212.800 256.326,212.800 262.651 C 212.800 268.681,212.862 268.800,216.000 268.800 C 217.232 268.800,218.415 268.975,218.630 269.190 C 219.189 269.749,218.915 361.579,218.352 362.257 C 218.120 362.537,216.828 362.816,215.466 362.882 L 213.000 363.000 212.879 365.600 C 212.729 368.815,212.591 368.953,209.281 369.200 L 206.600 369.400 206.484 372.700 L 206.368 376.000 219.141 376.000 C 233.674 376.000,232.400 376.368,232.400 372.167 L 232.400 369.600 235.400 369.600 L 238.400 369.600 238.400 329.000 L 238.400 288.400 241.600 288.400 L 244.800 288.400 244.800 275.000 L 244.800 261.600 241.617 261.600 L 238.434 261.600 238.317 258.500 L 238.200 255.400 235.300 255.282 L 232.400 255.165 232.400 253.197 C 232.400 251.638,232.234 251.139,231.600 250.800 C 230.897 250.424,230.800 249.962,230.800 246.989 C 230.800 244.040,230.902 243.543,231.600 243.107 C 232.334 242.649,232.400 242.174,232.400 237.366 L 232.400 232.124 226.937 231.862 C 220.710 231.563,207.074 231.625,203.200 231.969 M224.567 232.243 C 225.124 232.456,225.200 233.869,225.200 243.994 C 225.200 257.045,224.994 256.292,228.614 256.477 L 231.000 256.600 231.114 259.200 C 231.253 262.365,231.702 262.800,234.834 262.800 C 237.777 262.800,237.600 261.997,237.600 275.353 C 237.600 288.143,237.743 287.600,234.369 287.600 C 230.912 287.600,231.180 284.078,231.267 328.268 C 231.310 350.034,231.212 368.058,231.049 368.321 C 230.634 368.992,219.951 368.991,219.280 368.320 C 219.016 368.056,218.800 366.922,218.800 365.800 C 218.800 363.265,219.251 362.800,221.706 362.800 C 224.735 362.800,225.200 362.383,225.200 359.666 C 225.200 356.787,224.811 356.400,221.920 356.400 L 219.600 356.400 219.600 321.800 L 219.600 287.200 221.767 287.200 C 225.441 287.200,225.200 287.832,225.200 278.200 C 225.200 268.615,225.410 269.200,221.967 269.200 C 218.678 269.200,218.400 268.655,218.400 262.200 L 218.400 256.800 216.131 256.800 C 212.564 256.800,212.400 256.511,212.400 250.218 C 212.400 244.179,212.315 244.000,209.451 244.000 C 206.220 244.000,206.000 243.593,206.000 237.605 C 206.000 234.815,206.120 232.413,206.267 232.267 C 206.600 231.933,223.703 231.911,224.567 232.243 M280.787 234.400 L 280.600 237.000 278.214 237.123 C 275.150 237.280,274.861 237.563,274.718 240.534 L 274.600 243.000 259.200 243.207 L 243.800 243.414 259.051 243.507 C 276.295 243.612,275.089 243.859,275.277 240.186 L 275.400 237.800 277.866 237.682 C 280.920 237.535,281.281 237.141,281.107 234.134 L 280.973 231.800 280.787 234.400 M324.880 237.280 C 324.608 237.552,324.400 238.853,324.400 240.280 L 324.400 242.800 322.089 242.800 C 318.123 242.800,318.000 243.012,318.000 249.823 L 318.000 255.600 312.614 255.600 C 305.975 255.600,306.339 255.167,306.489 262.894 L 306.600 268.600 309.400 268.600 L 312.200 268.600 312.400 265.885 C 312.633 262.725,312.938 262.415,315.820 262.406 C 318.391 262.398,318.800 262.841,318.800 265.631 C 318.800 268.793,318.908 268.843,325.455 268.712 L 331.000 268.600 331.007 253.200 L 331.015 237.800 330.903 253.111 L 330.790 268.422 325.095 268.311 L 319.400 268.200 319.200 265.485 C 318.966 262.311,318.668 262.015,315.700 262.006 C 312.761 261.998,312.000 262.819,312.000 266.000 L 312.000 268.400 309.400 268.400 L 306.800 268.400 306.800 262.833 C 306.800 255.357,306.236 256.000,312.800 256.000 C 319.342 256.000,318.800 256.577,318.800 249.616 C 318.800 243.689,318.795 243.698,322.214 243.523 L 324.600 243.400 324.800 240.685 C 325.039 237.445,325.371 237.136,328.463 237.288 C 329.708 237.350,330.642 237.265,330.539 237.100 C 330.231 236.605,325.402 236.758,324.880 237.280 " stroke="none" fill="#d9a066" fill-rule="evenodd"></path><path id="path8" d="M106.880 19.280 C 106.616 19.544,106.400 20.768,106.400 22.000 C 106.400 24.847,106.017 25.200,102.928 25.200 C 100.095 25.200,100.104 25.189,99.905 29.000 L 99.800 31.000 97.800 31.105 C 93.975 31.304,94.000 31.284,94.000 34.208 L 94.000 36.800 96.771 36.800 C 100.351 36.800,100.800 37.219,100.800 40.552 C 100.800 43.958,100.423 44.348,97.000 44.487 L 94.200 44.600 94.200 47.200 L 94.200 49.800 96.586 49.923 C 99.670 50.081,100.000 50.395,100.000 53.169 C 100.000 55.998,100.398 56.400,103.200 56.400 C 106.341 56.400,106.400 56.514,106.400 62.600 C 106.400 68.694,106.345 68.800,103.169 68.800 C 99.971 68.800,100.032 68.621,99.908 78.431 L 99.800 87.000 96.800 87.200 L 93.800 87.400 93.600 102.800 L 93.400 118.200 90.800 118.400 C 86.913 118.699,87.200 117.680,87.200 131.181 C 87.200 144.705,87.519 143.600,83.610 143.600 C 80.553 143.600,80.800 141.384,80.800 168.800 C 80.800 196.453,80.492 194.000,83.963 194.000 C 87.598 194.000,87.600 194.004,87.600 200.200 C 87.600 206.935,86.788 206.400,97.000 206.400 C 106.584 206.400,106.400 206.340,106.400 209.480 L 106.400 211.600 108.971 211.600 L 111.542 211.600 111.770 205.700 C 111.895 202.455,112.043 198.540,112.099 197.000 L 112.200 194.200 109.814 194.077 C 106.730 193.919,106.400 193.605,106.400 190.831 C 106.400 188.002,106.002 187.600,103.200 187.600 C 99.767 187.600,100.000 189.207,100.000 165.534 C 100.000 141.452,99.635 143.600,103.731 143.600 C 106.561 143.600,106.400 144.361,106.400 131.016 C 106.400 118.177,106.197 118.908,109.814 118.723 L 112.200 118.600 112.305 103.635 C 112.423 86.756,112.252 87.600,115.569 87.600 C 118.880 87.600,118.800 87.834,118.800 78.200 C 118.800 68.566,118.720 68.800,122.031 68.800 C 125.235 68.800,125.168 69.000,125.292 58.969 L 125.400 50.200 128.200 50.000 L 131.000 49.800 131.000 37.600 L 131.000 25.400 128.200 25.200 L 125.400 25.000 125.279 22.415 C 125.212 20.994,124.965 19.599,124.730 19.315 C 124.138 18.602,107.590 18.570,106.880 19.280 M115.400 31.022 C 118.528 31.357,118.800 31.627,118.800 34.400 C 118.800 37.664,118.099 37.941,109.400 38.124 L 105.800 38.200 105.683 34.833 C 105.509 29.852,105.288 29.939,115.400 31.022 M244.300 194.422 C 243.759 194.745,243.600 195.378,243.600 197.206 C 243.600 200.048,244.143 200.503,247.312 200.320 L 249.400 200.200 249.400 197.200 L 249.400 194.200 247.200 194.103 C 245.990 194.049,244.685 194.193,244.300 194.422 M249.200 197.020 L 249.200 199.640 246.900 199.520 L 244.600 199.400 244.476 197.451 C 244.294 194.588,244.449 194.400,246.987 194.400 L 249.200 194.400 249.200 197.020 M250.082 203.300 L 250.200 206.200 252.200 206.305 C 255.973 206.502,256.000 206.522,256.000 209.131 C 256.000 212.300,256.429 212.747,259.600 212.886 L 262.200 213.000 262.308 221.549 C 262.433 231.418,262.503 231.200,259.200 231.200 C 256.392 231.200,256.081 231.524,255.923 234.614 L 255.800 237.000 249.919 237.200 C 246.684 237.310,243.858 237.580,243.638 237.800 C 243.102 238.336,255.629 238.069,256.282 237.530 C 256.547 237.311,256.817 236.023,256.882 234.666 L 257.000 232.200 259.439 232.000 C 263.336 231.681,263.201 232.037,263.194 222.051 C 263.187 211.961,263.291 212.263,259.715 212.000 L 257.000 211.800 256.886 209.200 C 256.746 206.027,256.300 205.600,253.124 205.600 L 250.800 205.600 250.800 203.189 L 250.800 200.777 256.300 200.889 L 261.800 201.000 261.914 203.600 C 262.054 206.773,262.500 207.200,265.676 207.200 L 268.000 207.200 268.000 209.524 C 268.000 212.700,268.427 213.146,271.600 213.286 L 274.200 213.400 274.308 222.169 C 274.373 227.466,274.580 231.135,274.830 231.437 C 275.278 231.976,280.802 232.404,280.801 231.900 C 280.800 231.735,279.666 231.600,278.280 231.600 C 274.676 231.600,274.800 231.942,274.800 221.963 C 274.800 212.150,275.042 212.800,271.381 212.800 C 268.790 212.800,268.400 212.306,268.400 209.026 L 268.400 206.800 266.174 206.800 C 262.894 206.800,262.400 206.410,262.400 203.819 C 262.400 200.235,262.712 200.400,255.940 200.400 L 249.965 200.400 250.082 203.300 M206.267 232.267 C 206.120 232.413,206.000 234.815,206.000 237.605 C 206.000 243.593,206.220 244.000,209.451 244.000 C 212.315 244.000,212.400 244.179,212.400 250.218 C 212.400 256.511,212.564 256.800,216.131 256.800 L 218.400 256.800 218.400 262.200 C 218.400 268.655,218.678 269.200,221.967 269.200 C 225.410 269.200,225.200 268.615,225.200 278.200 C 225.200 287.832,225.441 287.200,221.767 287.200 L 219.600 287.200 219.600 321.800 L 219.600 356.400 221.920 356.400 C 224.811 356.400,225.200 356.787,225.200 359.666 C 225.200 362.383,224.735 362.800,221.706 362.800 C 219.251 362.800,218.800 363.265,218.800 365.800 C 218.800 366.922,219.016 368.056,219.280 368.320 C 219.951 368.991,230.634 368.992,231.049 368.321 C 231.212 368.058,231.310 350.034,231.267 328.268 C 231.180 284.078,230.912 287.600,234.369 287.600 C 237.743 287.600,237.600 288.143,237.600 275.353 C 237.600 261.997,237.777 262.800,234.834 262.800 C 231.702 262.800,231.253 262.365,231.114 259.200 L 231.000 256.600 228.614 256.477 C 224.994 256.292,225.200 257.045,225.200 243.994 C 225.200 233.869,225.124 232.456,224.567 232.243 C 223.703 231.911,206.600 231.933,206.267 232.267 M278.015 236.698 C 274.660 236.886,274.400 237.140,274.400 240.244 L 274.400 242.791 258.900 242.903 L 243.400 243.014 259.000 243.007 L 274.600 243.000 274.723 240.614 C 274.881 237.518,275.189 237.200,278.025 237.200 C 279.305 237.200,280.464 237.020,280.600 236.800 C 280.736 236.580,280.792 236.435,280.724 236.477 C 280.656 236.519,279.437 236.619,278.015 236.698 M325.600 237.581 C 325.203 237.839,324.932 238.887,324.800 240.685 L 324.600 243.400 322.214 243.523 C 318.795 243.698,318.800 243.689,318.800 249.616 C 318.800 256.577,319.342 256.000,312.800 256.000 C 306.236 256.000,306.800 255.357,306.800 262.833 L 306.800 268.400 309.400 268.400 L 312.000 268.400 312.000 266.000 C 312.000 262.819,312.761 261.998,315.700 262.006 C 318.668 262.015,318.966 262.311,319.200 265.485 L 319.400 268.200 325.000 268.216 L 330.600 268.233 325.100 268.105 L 319.600 267.978 319.600 265.179 C 319.600 261.856,319.032 261.416,315.094 261.691 C 312.178 261.894,311.875 262.223,311.672 265.401 L 311.507 268.000 309.353 268.000 L 307.200 268.000 307.200 262.400 L 307.200 256.800 312.986 256.800 C 320.016 256.800,319.600 257.239,319.600 249.826 L 319.600 244.400 322.176 244.400 C 325.221 244.400,325.332 244.283,325.600 240.800 L 325.800 238.200 328.093 238.080 L 330.385 237.961 330.504 247.280 L 330.623 256.600 330.611 247.000 L 330.600 237.400 328.400 237.296 C 327.190 237.239,325.930 237.367,325.600 237.581 " stroke="none" fill="#eec39a" fill-rule="evenodd"></path><path id="path9" d="" stroke="none" fill="#ffff00" fill-rule="evenodd"></path></g></svg>