<svg id="Layer_1" data-name="Layer 1" xmlns="http://www.w3.org/2000/svg" viewBox="0 0 1718.47 92.81"><defs><style>.cls-1{fill:#fff;}</style></defs><title>stockmarketpets-moodboard</title><path class="cls-1" d="M222,92.74V83.57H203.46V9.17h18.43V.08h65.2v9h18.53V83.57H287.25v9.17Zm18.82-64.8V64.82h27.6V27.94Z"/><path class="cls-1" d="M102.06,83.56H93v9.23H9.26V83.62H0V65.17H27.66v9H46.24V55.8h-37V46.54H0V9.19H9.09V.08H92.87v9h9.23v18.6h-37V18.59H46.54V37H84v9.86h18Z"/><path class="cls-1" d="M481.25,18.28V0h37V37H490.76V55.67h27.51V92.78H481.35V74.57H462.73v18.2H425.47V0h37.06V18.28Z"/><path class="cls-1" d="M365.49,27.77V64.92h46.3V92.78H337.64V83.62H319V9.16h18.46V.07h74.38v27.7Z"/><path class="cls-1" d="M134.12,27.86h-18.6V0h74.11V27.73H171.27V92.79H134.12Z"/><path class="cls-1" d="M712.78,0V92.81H685V74.5h-9.37v9h-9.16v9.26H647.76V83.67H638.5V74.49h-9.36V92.74H601.27V0h32.35V18.34h14v18.5h18.7V18.52h14V0Z"/><path class="cls-1" d="M897.53,92.76V65.17H879V92.79H841.75V.08H925.4v9h18.52V47.81H925.64V64.94h18.27V92.76Zm-18.4-69.59V41.6h27.53V23.17Z"/><path class="cls-1" d="M726.33,9.12h18.4V0h65.2V9h18.46V92.8h-37V74.5H763.47V92.8H726.33ZM791.19,55.6v-28H763.64V55.6Z"/><path class="cls-1" d="M957.24,92.74V0h37.13V18.25h18.56V0h37.19V36.89h-27.53V55.61h27.47V92.74h-37V74.49H994.58V92.74Z"/><path class="cls-1" d="M1147.42,0V18.29h-37V36.91h18.31V55.65h-18.37V74.23h37V92.77h-83.51V0Z"/><path class="cls-1" d="M1235,0V27.67h-18.38V92.75H1179.3V27.8h-18.54V0Z"/><path class="cls-1" d="M1625.57,55.74V46.49h-9.27V9.22h9.18V0h83.77V9.09h9.18V27.62h-36.9v-9h-18.6v18.3h37.39v10h18.15V83.49h-9v9.26h-83.84V83.59h-9.25V65.09h27.73V74.2h18.51V55.74Z"/><path class="cls-1" d="M1315.8,92.8V.07h83.67v9H1418v46.5h-18.35v9.23h-46.59v28Zm65-69.57h-27.64V41.62h27.64Z"/><path class="cls-1" d="M1477.86,18.3V36.93h18.4V55.6H1478V74.25h36.9V92.78h-83.52V0h83.56V18.3Z"/><path class="cls-1" d="M1602.56,0V27.67h-18.38V92.75h-37.33V27.8h-18.54V0Z"/></svg>