<svg id="Layer_1" data-name="Layer 1" xmlns="http://www.w3.org/2000/svg" viewBox="0 0 1737.09 111.66"><defs><style>.cls-1{fill:#fff;}.cls-2{fill:#105b7e;}.cls-3{fill:#b5ebd2;}</style></defs><title>smp-logo</title><path class="cls-1" d="M1727.8,93.06h-9.1v9.2H1635v-9.2h-9.3V74.66h27.7v9H1672V65.26h-37V56h-9.3V18.66h9.1V9.56h83.8v9h9.2v18.6h-37v-9.1h-18.6v18.4h37.5v9.9h18Z"/><path class="cls-1" d="M1556.35,37.2h-18.6V9.3h74.1V37h-18.4v65.1h-37.2V37.2Z"/><path class="cls-1" d="M1524.6,9.44v18.3h-37v18.6h18.3V65h-18.4v18.6h37v18.5H1441V9.44Z"/><path class="cls-1" d="M1325.1,102.12V9.42h83.7v9h18.5v46.5H1409v9.2h-46.6v28Zm65-69.6h-27.6v18.4h27.6Z"/><path class="cls-1" d="M1189.88,37.27h-18.6V9.37h74.1v27.7H1227v65.1h-37.2V37.27Z"/><path class="cls-1" d="M1156.7,9.32v18.3h-37v18.6H1138v18.7h-18.4v18.6h37V102h-83.5V9.32Z"/><path class="cls-1" d="M966.5,102V9.32h37.1v18.2h18.6V9.32h37.2v36.9h-27.5v18.7h27.5V102h-37V83.82h-18.5V102Z"/><path class="cls-1" d="M906.8,102.12V74.52H888.3v27.6H851.1V9.42h83.7v9h18.5v38.7H935v17.1h18.3V102H906.8Zm-18.4-69.6v18.4h27.5V32.52Z"/><path class="cls-1" d="M735.6,18.42H754V9.32h65.2v9h18.5v83.8h-37V83.82H772.8v18.3H735.7V18.42Zm64.9,46.5v-28H773v28Z"/><path class="cls-1" d="M490.5,27.62V9.32h37v37H500V65h27.5v37.1H490.6V83.92H472v18.2H434.7V9.32h37.1v18.3Z"/><path class="cls-1" d="M374.8,37.12v37.1h46.3v27.9H347v-9.2H328.3V18.52h18.5V9.42h74.4v27.7Z"/><path class="cls-1" d="M231.3,102v-9.2H212.8V18.52h18.4V9.42h65.2v9h18.5v74.5H296.5v9.2H231.3Zm18.8-64.8v36.9h27.6V37.22Z"/><path class="cls-1" d="M143.4,37.22H124.8V9.32h74.1V37H180.5v65.1H143.3V37.22Z"/><path class="cls-1" d="M111.4,92.92h-9.1v9.2H18.6v-9.2H9.3V74.52H37v9H55.6V65.12h-37v-9.3H9.3V18.52h9.1V9.42h83.8v9h9.2V37h-37v-9.1H55.8v18.4H93.3v9.9h18Z"/><path class="cls-1" d="M722.1,9.32v92.8H694.3V83.82h-9.4v9h-9.2v9.3H657V93h-9.3v-9.2h-9.4V102H610.4V9.32h32.3v18.3h14v18.5h18.7V27.82h14V9.32Z"/><rect class="cls-2" x="421.2" y="9.42" width="9.3" height="36.82"/><rect class="cls-2" x="421.2" y="65.11" width="9.3" height="37.01"/><rect class="cls-2" x="212.8" y="9.42" width="18.4" height="9.1"/><rect class="cls-2" x="296.4" y="9.42" width="18.5" height="8.99"/><rect class="cls-2" x="328.3" y="9.42" width="18.5" height="9.1"/><rect class="cls-2" x="212.8" y="92.82" width="18.5" height="9.3"/><rect class="cls-2" x="296.4" y="92.82" width="18.5" height="9.3"/><rect class="cls-2" x="328.3" y="92.92" width="18.7" height="9.2"/><rect class="cls-3" x="18.6" y="9.32" width="9" height="18.59"/><rect class="cls-2" x="9.29" y="55.82" width="9.3" height="11.82"/><rect class="cls-2" x="9.29" y="65.11" width="46.31" height="9.4"/><rect class="cls-2" x="9.29" y="92.92" width="9.3" height="9.3"/><rect class="cls-2" y="18.63" width="9.3" height="37.19"/><rect class="cls-2" y="74.52" width="9.3" height="18.4"/><rect class="cls-2" x="9.3" y="9.33" width="9.3" height="9.3"/><rect class="cls-2" x="9.3" y="18.63" width="9.3" height="9.3"/><rect class="cls-2" x="55.8" y="27.93" width="18.6" height="9.63"/><rect class="cls-2" x="55.8" y="37.02" width="55.6" height="9.3"/><rect class="cls-2" x="102.17" y="9.32" width="9.3" height="9.3"/><rect class="cls-2" x="93.29" y="46.32" width="18.48" height="9.9"/><rect class="cls-2" x="111.31" y="46.32" width="9.3" height="46.61"/><rect class="cls-2" x="111.4" y="18.61" width="9.3" height="18.59"/><rect class="cls-2" x="102.28" y="92.93" width="9.02" height="9.19"/><rect class="cls-2" x="18.6" y="0.02" width="83.57" height="9.3"/><rect class="cls-2" x="18.6" y="102.22" width="83.57" height="9.3"/><rect class="cls-2" x="37" y="74.22" width="18.6" height="9.3"/><rect class="cls-3" x="9.3" y="27.92" width="9.3" height="27.9"/><rect class="cls-3" x="18.6" y="55.81" width="9.3" height="9.3"/><rect class="cls-3" x="55.6" y="65.11" width="9.3" height="18.4"/><rect class="cls-3" x="9.29" y="74.52" width="9.3" height="18.4"/><rect class="cls-3" x="18.6" y="93.02" width="9.3" height="9"/><rect class="cls-2" x="189.79" y="37.02" width="9.1" height="9.19"/><rect class="cls-2" x="133.99" y="37.22" width="9.3" height="64.9"/><rect class="cls-3" x="143.29" y="37.22" width="9.3" height="64.9"/><rect class="cls-2" x="115.5" y="9.32" width="9.3" height="27.88"/><rect class="cls-2" x="198.9" y="9.32" width="9.3" height="27.88"/><rect class="cls-2" x="143.29" y="102.12" width="37.21" height="9.3"/><rect class="cls-2" x="124.8" y="0.02" width="74.1" height="9.3"/><rect class="cls-2" x="124.8" y="37.22" width="9.32" height="9.19"/><rect class="cls-2" x="180.5" y="37.02" width="9.3" height="65.1"/><rect class="cls-3" x="124.8" y="9.32" width="9.3" height="27.9"/><rect class="cls-2" x="203.5" y="18.52" width="9.3" height="74.3"/><rect class="cls-3" x="212.8" y="18.52" width="9.3" height="74.3"/><rect class="cls-2" x="314.9" y="18.43" width="9.3" height="74.49"/><rect class="cls-2" x="319" y="18.43" width="9.3" height="74.49"/><rect class="cls-2" x="231.19" y="0.32" width="65.2" height="9.1"/><rect class="cls-2" x="231.3" y="102.12" width="65.1" height="9.1"/><rect class="cls-2" x="347" y="102.12" width="74.2" height="9.1"/><rect class="cls-2" x="434.7" y="102.12" width="37.28" height="9.1"/><rect class="cls-2" x="490.6" y="102.12" width="36.9" height="9.1"/><rect class="cls-2" x="434.7" y="0.22" width="37.09" height="9.1"/><rect class="cls-2" x="490.5" y="0.22" width="37" height="9.1"/><rect class="cls-2" x="610.4" y="0.22" width="32.29" height="9.1"/><rect class="cls-2" x="610.4" y="102.02" width="27.9" height="9.1"/><rect class="cls-2" x="689.39" y="0.22" width="32.7" height="9.1"/><rect class="cls-2" x="694.3" y="102.02" width="27.9" height="9.1"/><rect class="cls-2" x="735.69" y="102.12" width="37.08" height="9.1"/><rect class="cls-2" x="800.69" y="102.12" width="37" height="9.1"/><rect class="cls-2" x="851.1" y="102.12" width="37.21" height="9.1"/><rect class="cls-2" x="906.79" y="102.02" width="46.5" height="9.2"/><rect class="cls-2" x="966.5" y="102.02" width="37.36" height="9.2"/><rect class="cls-2" x="1022.38" y="102.02" width="37.01" height="9.2"/><rect class="cls-2" x="1073.1" y="102.02" width="83.5" height="9.2"/><rect class="cls-2" x="1073.1" y="0.12" width="83.5" height="9.2"/><rect class="cls-2" x="966.5" y="0.12" width="37.09" height="9.2"/><rect class="cls-2" x="1022.17" y="0.27" width="37.23" height="9.2"/><rect class="cls-2" x="1031.9" y="46.23" width="27.5" height="18.69"/><rect class="cls-2" x="499.99" y="46.23" width="27.51" height="18.78"/><rect class="cls-2" x="346.8" y="0.32" width="74.4" height="9.1"/><rect class="cls-2" x="250.1" y="37.22" width="9.3" height="36.9"/><rect class="cls-2" x="374.79" y="46.23" width="9.3" height="27.88"/><rect class="cls-2" x="259.4" y="37.22" width="8.99" height="8.99"/><rect class="cls-2" x="254.65" y="65.12" width="18.5" height="8.99"/><rect class="cls-3" x="231.3" y="92.82" width="9.3" height="9.3"/><rect class="cls-3" x="347" y="92.92" width="9.3" height="9.2"/><rect class="cls-3" x="490.5" y="83.91" width="9.3" height="18.2"/><rect class="cls-3" x="490.5" y="9.37" width="9.3" height="18.25"/><rect class="cls-3" x="231.3" y="9.32" width="9.3" height="9.3"/><rect class="cls-3" x="328.3" y="18.52" width="9.3" height="74.4"/><rect class="cls-3" x="434.75" y="9.42" width="9.3" height="92.7"/><rect class="cls-3" x="610.4" y="9.42" width="9.3" height="92.6"/><rect class="cls-3" x="346.8" y="9.42" width="9.3" height="9.1"/><rect class="cls-2" x="374.8" y="37.13" width="46.4" height="9.1"/><rect class="cls-2" x="374.8" y="65.11" width="46.4" height="9.1"/><rect class="cls-2" x="425.4" y="9.42" width="9.3" height="92.7"/><rect class="cls-2" x="601.1" y="9.32" width="9.3" height="92.7"/><rect class="cls-2" x="722.1" y="9.32" width="9.3" height="92.8"/><rect class="cls-2" x="726.4" y="18.42" width="9.3" height="83.7"/><rect class="cls-3" x="735.6" y="18.42" width="9.3" height="83.7"/><rect class="cls-2" x="837.7" y="18.42" width="9.3" height="83.7"/><rect class="cls-2" x="841.8" y="9.42" width="9.3" height="92.7"/><rect class="cls-3" x="851.1" y="9.42" width="9.3" height="92.7"/><rect class="cls-2" x="888.31" y="74.52" width="18.53" height="27.6"/><rect class="cls-2" x="953.3" y="74.22" width="9.3" height="27.8"/><rect class="cls-2" x="953.3" y="18.41" width="9.3" height="38.69"/><rect class="cls-2" x="957.2" y="9.32" width="9.3" height="92.7"/><rect class="cls-2" x="1059.4" y="9.32" width="13.7" height="92.7"/><rect class="cls-2" x="1156.6" y="83.52" width="9.3" height="18.49"/><rect class="cls-2" x="527.5" y="9.32" width="9.3" height="36.92"/><rect class="cls-2" x="527.5" y="65.02" width="9.3" height="37.1"/><rect class="cls-2" x="684.9" y="83.82" width="9.4" height="18.3"/><rect class="cls-2" x="638.29" y="83.82" width="9.4" height="18.3"/><rect class="cls-2" x="679.99" y="9.32" width="9.4" height="18.5"/><rect class="cls-2" x="642.69" y="9.32" width="9.4" height="18.3"/><rect class="cls-2" x="656.67" y="27.39" width="18.73" height="18.73"/><rect class="cls-2" x="471.98" y="83.91" width="18.62" height="9.2"/><rect class="cls-2" x="471.98" y="92.92" width="9.3" height="9.2"/><rect class="cls-2" x="481.29" y="92.92" width="9.3" height="9.2"/><rect class="cls-2" x="471.79" y="9.32" width="18.71" height="18.3"/><rect class="cls-2" x="652.01" y="18.42" width="9.3" height="9.2"/><rect class="cls-2" x="670.74" y="18.61" width="9.3" height="9.2"/><rect class="cls-2" x="647.7" y="92.97" width="9.3" height="9.15"/><rect class="cls-2" x="675.7" y="92.82" width="9.3" height="9.3"/><rect class="cls-2" x="657" y="102.12" width="18.7" height="9"/><rect class="cls-3" x="694.25" y="83.87" width="9.3" height="18.2"/><rect class="cls-3" x="800.69" y="83.87" width="9.3" height="18.2"/><rect class="cls-3" x="906.84" y="74.52" width="9.3" height="27.55"/><rect class="cls-3" x="966.67" y="9.42" width="9.3" height="92.7"/><rect class="cls-3" x="1073.1" y="9.42" width="9.3" height="92.7"/><rect class="cls-3" x="1022.42" y="83.62" width="9.3" height="18.45"/><rect class="cls-3" x="1022.2" y="9.47" width="9.3" height="18.05"/><rect class="cls-2" x="754" y="0.22" width="65.17" height="9.1"/><rect class="cls-2" x="851.1" y="0.32" width="83.71" height="9.1"/><rect class="cls-2" x="772.77" y="83.82" width="9.3" height="18.3"/><rect class="cls-2" x="791.39" y="83.82" width="9.3" height="18.3"/><rect class="cls-2" x="888.3" y="32.52" width="9.3" height="18.4"/><rect class="cls-2" x="772.77" y="36.92" width="9.3" height="28"/><rect class="cls-2" x="781.99" y="83.82" width="9.74" height="9.1"/><rect class="cls-2" x="781.99" y="36.92" width="9.74" height="9.1"/><rect class="cls-2" x="781.99" y="55.82" width="9.74" height="9.1"/><rect class="cls-2" x="735.69" y="9.32" width="18.3" height="9.1"/><rect class="cls-2" x="819.19" y="9.32" width="18.5" height="9.1"/><rect class="cls-3" x="754" y="9.37" width="9.3" height="9"/><rect class="cls-2" x="897.27" y="39.99" width="9.74" height="10.93"/><rect class="cls-2" x="934.8" y="9.42" width="18.49" height="9"/><rect class="cls-2" x="934.8" y="57.11" width="23.14" height="17.11"/><rect class="cls-2" x="1003.6" y="9.47" width="18.6" height="18.05"/><rect class="cls-2" x="1003.86" y="83.62" width="18.52" height="18.4"/><rect class="cls-2" x="1156.7" y="9.32" width="9.3" height="18.3"/><rect class="cls-2" x="1137.99" y="46.23" width="9.3" height="18.69"/><rect class="cls-2" x="1119.61" y="64.92" width="9.3" height="18.69"/><rect class="cls-2" x="1119.61" y="27.62" width="9.3" height="18.69"/><rect class="cls-2" x="1128.9" y="27.62" width="27.79" height="9.2"/><rect class="cls-2" x="1128.9" y="74.02" width="27.69" height="9.59"/><rect class="cls-2" x="1128.9" y="64.82" width="9.09" height="9.2"/><rect class="cls-2" x="1128.9" y="36.82" width="9.09" height="9.49"/><rect class="cls-2" x="1315.8" y="9.42" width="9.3" height="92.75"/><rect class="cls-2" x="1236.28" y="37.07" width="9.1" height="9.19"/><rect class="cls-2" x="1180.48" y="37.27" width="9.3" height="64.9"/><rect class="cls-3" x="1189.77" y="37.27" width="9.3" height="64.9"/><rect class="cls-2" x="1161.98" y="9.37" width="9.3" height="27.88"/><rect class="cls-2" x="1245.38" y="9.37" width="9.3" height="27.88"/><rect class="cls-2" x="1189.77" y="102.17" width="37.21" height="9.3"/><rect class="cls-2" x="1325.1" y="102.12" width="37.35" height="9.3"/><rect class="cls-2" x="1171.28" y="0.07" width="74.1" height="9.3"/><rect class="cls-2" x="1171.28" y="37.27" width="9.32" height="9.19"/><rect class="cls-2" x="1226.98" y="37.07" width="9.3" height="65.1"/><rect class="cls-3" x="1171.29" y="9.37" width="9.3" height="27.9"/><rect class="cls-2" x="1441" y="102.14" width="83.5" height="9.2"/><rect class="cls-2" x="1441" y="0.24" width="83.5" height="9.2"/><rect class="cls-2" x="1427.3" y="9.44" width="13.7" height="92.7"/><rect class="cls-2" x="1524.5" y="83.65" width="9.3" height="18.49"/><rect class="cls-3" x="1441" y="9.54" width="9.3" height="92.7"/><rect class="cls-3" x="1325.1" y="9.54" width="9.3" height="92.7"/><rect class="cls-2" x="1524.5" y="9.3" width="9.39" height="27.65"/><rect class="cls-2" x="1505.89" y="46.35" width="9.3" height="18.69"/><rect class="cls-2" x="1487.51" y="65.04" width="9.3" height="18.69"/><rect class="cls-2" x="1487.51" y="27.75" width="9.3" height="18.69"/><rect class="cls-2" x="1496.8" y="27.75" width="27.79" height="9.2"/><rect class="cls-2" x="1496.8" y="74.14" width="27.69" height="9.59"/><rect class="cls-2" x="1496.8" y="64.94" width="9.09" height="9.2"/><rect class="cls-2" x="1496.8" y="36.95" width="9.09" height="9.49"/><rect class="cls-2" x="1602.74" y="37" width="9.1" height="9.19"/><rect class="cls-2" x="1546.94" y="37.2" width="9.3" height="64.9"/><rect class="cls-3" x="1556.24" y="37.2" width="9.3" height="64.9"/><rect class="cls-2" x="1528.45" y="9.3" width="9.3" height="27.65"/><rect class="cls-2" x="1611.85" y="9.3" width="9.3" height="36.89"/><rect class="cls-2" x="1556.24" y="102.1" width="37.21" height="9.3"/><rect class="cls-2" x="1537.75" width="74.1" height="9.3"/><rect class="cls-2" x="1537.75" y="37.2" width="9.32" height="9.19"/><rect class="cls-2" x="1593.45" y="37" width="9.3" height="65.1"/><rect class="cls-3" x="1537.75" y="9.3" width="9.3" height="27.9"/><rect class="cls-3" x="1635" y="9.46" width="9" height="18.59"/><rect class="cls-2" x="1625.69" y="55.96" width="9.3" height="11.82"/><rect class="cls-2" x="1625.69" y="65.26" width="46.31" height="9.4"/><rect class="cls-2" x="1625.69" y="93.07" width="9.3" height="9.3"/><rect class="cls-2" x="1616.4" y="18.77" width="9.3" height="37.19"/><rect class="cls-2" x="1616.4" y="74.66" width="9.3" height="18.4"/><rect class="cls-2" x="1625.7" y="9.48" width="9.3" height="9.3"/><rect class="cls-2" x="1625.7" y="18.77" width="9.3" height="9.3"/><rect class="cls-2" x="1672.2" y="28.08" width="18.6" height="9.63"/><rect class="cls-2" x="1672.2" y="37.16" width="55.6" height="9.3"/><rect class="cls-2" x="1718.57" y="9.46" width="9.3" height="9.3"/><rect class="cls-2" x="1709.69" y="46.47" width="18.48" height="9.9"/><rect class="cls-2" x="1727.71" y="46.47" width="9.3" height="46.61"/><rect class="cls-2" x="1727.8" y="18.76" width="9.3" height="18.59"/><rect class="cls-2" x="1718.68" y="93.07" width="9.02" height="9.19"/><rect class="cls-2" x="1635" y="0.17" width="83.57" height="9.3"/><rect class="cls-2" x="1635" y="102.36" width="83.57" height="9.3"/><rect class="cls-2" x="1653.4" y="74.37" width="18.6" height="9.3"/><rect class="cls-3" x="1625.7" y="28.07" width="9.3" height="27.9"/><rect class="cls-3" x="1635" y="55.96" width="9.3" height="9.3"/><rect class="cls-3" x="1672" y="65.26" width="9.3" height="18.4"/><rect class="cls-3" x="1625.69" y="74.66" width="9.3" height="18.4"/><rect class="cls-3" x="1635" y="93.17" width="9.3" height="9"/><rect class="cls-2" x="1325.1" y="0.12" width="83.68" height="9.3"/><rect class="cls-2" x="1362.34" y="74.05" width="46.66" height="9.3"/><rect class="cls-2" x="1409" y="64.9" width="19.75" height="9.3"/><rect class="cls-2" x="1408.78" y="9.48" width="19.75" height="8.94"/><rect class="cls-2" x="1362.34" y="74.05" width="9.3" height="28.07"/><rect class="cls-2" x="1362.4" y="32.49" width="9.3" height="18.4"/><rect class="cls-2" x="1371.37" y="39.96" width="9.74" height="10.93"/></svg>